<svg xmlns="http://www.w3.org/2000/svg" xmlns:xlink="http://www.w3.org/1999/xlink" width="18" height="18" viewBox="0 0 18 18">
  <defs>
    <clipPath id="clip-path">
      <rect id="Rectangle_68" data-name="Rectangle 68" width="18" height="18" fill="#828282"/>
    </clipPath>
  </defs>
  <g id="Mask_Group_54" data-name="Mask Group 54" clip-path="url(#clip-path)">
    <path id="path2" d="M12.873,15.3H18.9a.9.9,0,0,0,.9-.9V3.6a.9.9,0,0,0-.9-.9H2.7a.9.9,0,0,0-.9.9V14.4a.9.9,0,0,0,.9.9H6.3V18a.9.9,0,0,0,1.4.749ZM3.6,13.5v-9H18v9H12.6a.893.893,0,0,0-.5.151l-4,2.667V14.4a.9.9,0,0,0-.9-.9Z" transform="translate(-1.801 -1.801)" fill="#828282" fill-rule="evenodd"/>
  </g>
</svg>
