<svg xmlns="http://www.w3.org/2000/svg" xmlns:xlink="http://www.w3.org/1999/xlink" width="40" height="40" viewBox="0 0 40 40">
  <defs>
    <clipPath id="clip-path">
      <rect id="Rectangle_253" data-name="Rectangle 253" width="40" height="40" fill="#fff" stroke="#707070" stroke-width="1"/>
    </clipPath>
  </defs>
  <g id="ΩElements_Avatar_A.Image_" data-name="ΩElements/Avatar/A.Image/" clip-path="url(#clip-path)">
    <g id="question_1_" data-name="question (1)" transform="translate(2.494 0)">
      <path id="Path_347" data-name="Path 347" d="M37.506,17.506A17.506,17.506,0,1,0,15.192,34.343a2.632,2.632,0,0,1,1.564,1.212l2.223,3.855a1.179,1.179,0,0,0,2.042,0l2.223-3.855a2.631,2.631,0,0,1,1.563-1.211,17.513,17.513,0,0,0,12.7-16.837Z" transform="translate(-2.494 0)" fill="#f66a6a"/>
      <path id="Path_348" data-name="Path 348" d="M19.873,0q-.879.006-1.736.1a17.509,17.509,0,0,1,2.944,34.244,2.631,2.631,0,0,0-1.563,1.211l-1.381,2.4.842,1.46a1.179,1.179,0,0,0,2.042,0l2.223-3.855a2.631,2.631,0,0,1,1.563-1.211A17.508,17.508,0,0,0,19.873,0Z" transform="translate(-2.494 0)" fill="#E22828"/>
      <path id="Path_349" data-name="Path 349" d="M20.506,27.279H19.494a1.19,1.19,0,0,1-1.19-1.19v-.815a1.19,1.19,0,0,1,1.19-1.19h1.012a1.19,1.19,0,0,1,1.19,1.19v.815A1.19,1.19,0,0,1,20.506,27.279Z" transform="translate(-2.494 0)" fill="#fff"/>
      <path id="Path_350" data-name="Path 350" d="M20.506,24.084H19.494c-.039,0-.077,0-.114.006a1.19,1.19,0,0,1,1.075,1.184v.815a1.19,1.19,0,0,1-1.075,1.184c.038,0,.076.006.114.006h1.012a1.19,1.19,0,0,0,1.19-1.19v-.815A1.19,1.19,0,0,0,20.506,24.084Z" transform="translate(-2.494 0)" fill="#e7e7e7"/>
      <g id="Group_219" data-name="Group 219" transform="translate(11.853 7.179)">
        <path id="Path_351" data-name="Path 351" d="M20,21.9a1.558,1.558,0,0,1-1.558-1.558V16.928A1.558,1.558,0,0,1,20,15.37a2.537,2.537,0,1,0-2.537-2.537,1.558,1.558,0,0,1-3.116,0,5.653,5.653,0,1,1,7.321,5.4.154.154,0,0,0-.109.148v1.96A1.558,1.558,0,0,1,20,21.9Z" transform="translate(-14.347 -7.179)" fill="#fff"/>
      </g>
      <g id="Group_220" data-name="Group 220" transform="translate(12.083 7.651)">
        <path id="Path_352" data-name="Path 352" d="M20,10.3a2.535,2.535,0,0,1,.631.079,2.536,2.536,0,0,0-4.4,1.716,1.558,1.558,0,0,1-1.558,1.558c-.031,0-.061,0-.092,0a1.557,1.557,0,0,0,2.887-.812A2.54,2.54,0,0,1,20,10.3Z" transform="translate(-14.576 -7.651)" fill="#e2dfe2"/>
        <path id="Path_353" data-name="Path 353" d="M22.258,7.651a5.649,5.649,0,0,1-1.318,9.658,1.011,1.011,0,0,0-.618.933V19.6a1.558,1.558,0,0,1-1.558,1.558c-.031,0-.061,0-.092,0a1.556,1.556,0,0,0,1.312.747,1.592,1.592,0,0,0,1.575-1.6V18.383a.154.154,0,0,1,.109-.148,5.653,5.653,0,0,0,.591-10.584Z" transform="translate(-14.576 -7.651)" fill="#e7e7e7"/>
      </g>
    </g>
  </g>
</svg>
