<svg xmlns="http://www.w3.org/2000/svg" width="24" height="21.252" viewBox="0 0 24 21.252">
  <g id="Group_191" data-name="Group 191" transform="translate(0 0)">
    <g id="Group_190" data-name="Group 190">
      <circle id="Ellipse_17" data-name="Ellipse 17" cx="1.649" cy="1.649" r="1.649" transform="translate(7.397 5.244)" fill="#03ac84"/>
      <path id="Path_318" data-name="Path 318" d="M22.58,16.4a5.078,5.078,0,0,0-2.84-1.351V6.664a3.3,3.3,0,0,0-.939-2.29,3.2,3.2,0,0,0-2.29-.939H3.229a3.3,3.3,0,0,0-2.29.939A3.2,3.2,0,0,0,0,6.664V20.336a3.3,3.3,0,0,0,.939,2.29,3.2,3.2,0,0,0,2.29.939H16.076a4.845,4.845,0,0,0,6.5-7.168ZM1.214,6.664a1.917,1.917,0,0,1,.6-1.4,2.009,2.009,0,0,1,1.42-.6H16.511a2.033,2.033,0,0,1,2.015,2.015v7.145l-3.389-3.389a.615.615,0,0,0-.87,0L9.16,15.573,5.7,12.092a.615.615,0,0,0-.87,0L1.214,15.756ZM3.206,22.4v-.046a2.009,2.009,0,0,1-1.42-.6,2.09,2.09,0,0,1-.573-1.42V17.5L5.267,13.42l3.458,3.458a.637.637,0,0,0,.87,0l5.107-5.13,3.344,3.366-.206.069a2.127,2.127,0,0,0-.3.092c-.092.023-.183.069-.275.092a.686.686,0,0,0-.183.092,2.127,2.127,0,0,0-.229.115l-.344.206c-.069.046-.115.069-.183.115-.046.023-.069.046-.115.069a2.763,2.763,0,0,0-.55.481,4.845,4.845,0,0,0-1.42,3.435,5.035,5.035,0,0,0,.115,1.008c.023.092.046.16.069.252.069.229.137.458.229.687v.023a4.2,4.2,0,0,0,.3.55Zm18.481,0a3.623,3.623,0,0,1-5.061.046c-.092-.092-.183-.206-.275-.3-.069-.069-.137-.16-.206-.229a2.175,2.175,0,0,1-.229-.389c-.046-.092-.092-.16-.137-.252a1.934,1.934,0,0,1-.115-.389c-.023-.092-.069-.206-.092-.3a3.79,3.79,0,0,1-.069-.733,3.676,3.676,0,0,1,1.053-2.565,3.541,3.541,0,0,1,2.565-1.053,3.676,3.676,0,0,1,2.565,1.053,3.579,3.579,0,0,1,1.053,2.565A3.663,3.663,0,0,1,21.687,22.4Z" transform="translate(0 -3.435)" fill="#03ac84"/>
      <path id="Path_319" data-name="Path 319" d="M45.2,38.027a.8.8,0,0,0-.206-.137.669.669,0,0,0-.206-.046h-.046a.669.669,0,0,0-.206.046.541.541,0,0,0-.206.137l-1.42,1.42a.615.615,0,0,0,.87.87l.366-.366v2.519a.618.618,0,1,0,1.237,0V39.95l.366.366a.615.615,0,1,0,.87-.87Z" transform="translate(-25.643 -24.08)" fill="#03ac84"/>
    </g>
  </g>
</svg>
