<svg xmlns="http://www.w3.org/2000/svg" xmlns:xlink="http://www.w3.org/1999/xlink" width="60" height="60" viewBox="0 0 60 60">
  <defs>
    <clipPath id="clip-path">
      <rect id="Rectangle_240" data-name="Rectangle 240" width="60" height="60" transform="translate(936 351)" fill="#03ac84" stroke="#707070" stroke-width="1"/>
    </clipPath>
  </defs>
  <g id="Mask_Group_27" data-name="Mask Group 27" transform="translate(-936 -351)" clip-path="url(#clip-path)">
    <g id="photo" transform="translate(936 351)">
      <g id="Group_191" data-name="Group 191">
        <g id="Group_190" data-name="Group 190">
          <circle id="Ellipse_17" data-name="Ellipse 17" cx="4.122" cy="4.122" r="4.122" transform="translate(18.492 16.546)" fill="#03ac84"/>
          <path id="Path_318" data-name="Path 318" d="M56.45,35.84a12.694,12.694,0,0,0-7.1-3.378V11.508A8.243,8.243,0,0,0,47,5.782a8,8,0,0,0-5.725-2.347H8.073A8.243,8.243,0,0,0,2.347,5.782,8,8,0,0,0,0,11.508V45.687a8.243,8.243,0,0,0,2.347,5.725A8,8,0,0,0,8.073,53.76H40.191A12.113,12.113,0,0,0,56.45,35.84ZM3.034,11.508A4.792,4.792,0,0,1,4.523,8.015a5.024,5.024,0,0,1,3.55-1.489H41.279a5.083,5.083,0,0,1,5.038,5.038V29.427l-8.473-8.473a1.537,1.537,0,0,0-2.176,0L22.9,33.779l-8.645-8.7a1.537,1.537,0,0,0-2.176,0l-9.046,9.16ZM8.015,50.84v-.115a5.024,5.024,0,0,1-3.55-1.489,5.225,5.225,0,0,1-1.431-3.55v-7.1L13.168,28.4l8.645,8.645a1.592,1.592,0,0,0,2.176,0L36.756,24.218l8.359,8.416-.515.172a5.317,5.317,0,0,0-.744.229c-.229.057-.458.172-.687.229a1.714,1.714,0,0,0-.458.229,5.319,5.319,0,0,0-.573.286l-.859.515c-.172.115-.286.172-.458.286-.115.057-.172.115-.286.172a6.907,6.907,0,0,0-1.374,1.2,12.111,12.111,0,0,0-3.55,8.588,12.586,12.586,0,0,0,.286,2.519c.057.229.115.4.172.63.172.573.344,1.145.573,1.718v.057a10.5,10.5,0,0,0,.744,1.374Zm46.2,0a9.057,9.057,0,0,1-12.653.115c-.229-.229-.458-.515-.687-.744-.172-.172-.344-.4-.515-.573a5.437,5.437,0,0,1-.573-.973c-.115-.229-.229-.4-.344-.63a4.836,4.836,0,0,1-.286-.973c-.057-.229-.172-.515-.229-.744a9.476,9.476,0,0,1-.172-1.832,9.19,9.19,0,0,1,2.634-6.412,8.851,8.851,0,0,1,6.412-2.634,9.19,9.19,0,0,1,6.412,2.634,8.949,8.949,0,0,1,2.634,6.412A9.157,9.157,0,0,1,54.218,50.84Z" fill="#03ac84"/>
          <path id="Path_319" data-name="Path 319" d="M48.893,38.3a2,2,0,0,0-.515-.344,1.672,1.672,0,0,0-.515-.115h-.115a1.672,1.672,0,0,0-.515.115,1.352,1.352,0,0,0-.515.344l-3.55,3.55a1.538,1.538,0,0,0,2.176,2.176l.916-.916v6.3a1.546,1.546,0,0,0,3.092,0v-6.3l.916.916a1.538,1.538,0,0,0,2.176-2.176Z" fill="#03ac84"/>
        </g>
      </g>
    </g>
  </g>
</svg>
