<svg xmlns="http://www.w3.org/2000/svg" xmlns:xlink="http://www.w3.org/1999/xlink" width="24" height="24" viewBox="0 0 24 24">
  <defs>
    <clipPath id="clip-path">
      <rect id="Rectangle_754" data-name="Rectangle 754" width="24" height="24" transform="translate(1201 195)" fill="#616161" stroke="#707070" stroke-width="1"/>
    </clipPath>
  </defs>
  <g id="Mask_Group_123" data-name="Mask Group 123" transform="translate(-1201 -195)" clip-path="url(#clip-path)">
    <g id="settings-cog" transform="translate(1201 195)">
      <path id="Path_5559" data-name="Path 5559" d="M23.848,10.18a1.027,1.027,0,0,0-.672-.814l-1.891-.672a9.821,9.821,0,0,0-.379-.923l.86-1.811a1.029,1.029,0,0,0-.1-1.051A12.023,12.023,0,0,0,19.09,2.335a1.027,1.027,0,0,0-1.05-.1l-1.81.86a9.8,9.8,0,0,0-.923-.379L14.635.825a1.028,1.028,0,0,0-.813-.672,10.912,10.912,0,0,0-3.644,0,1.029,1.029,0,0,0-.813.672L8.693,2.716a9.767,9.767,0,0,0-.923.379l-1.81-.86a1.027,1.027,0,0,0-1.05.1A12.023,12.023,0,0,0,2.334,4.909a1.029,1.029,0,0,0-.1,1.051l.86,1.811a9.85,9.85,0,0,0-.379.923L.824,9.366a1.028,1.028,0,0,0-.672.814A11.889,11.889,0,0,0,0,12a11.9,11.9,0,0,0,.151,1.821,1.027,1.027,0,0,0,.672.814l1.891.672a9.96,9.96,0,0,0,.379.923l-.86,1.81a1.028,1.028,0,0,0,.1,1.05,12.024,12.024,0,0,0,2.576,2.575,1.025,1.025,0,0,0,1.05.1l1.81-.86a9.8,9.8,0,0,0,.923.379l.673,1.891a1.028,1.028,0,0,0,.813.672A11.911,11.911,0,0,0,12,24a11.91,11.91,0,0,0,1.822-.152,1.028,1.028,0,0,0,.813-.672l.673-1.891a9.8,9.8,0,0,0,.923-.379l1.81.86a1.027,1.027,0,0,0,1.051-.1,12.023,12.023,0,0,0,2.575-2.575,1.028,1.028,0,0,0,.1-1.05l-.86-1.81a9.85,9.85,0,0,0,.379-.923l1.891-.672a1.027,1.027,0,0,0,.672-.814A11.9,11.9,0,0,0,24,12,11.893,11.893,0,0,0,23.848,10.18Zm-1.955,2.728-1.774.631a1.027,1.027,0,0,0-.642.678,7.728,7.728,0,0,1-.62,1.507,1.029,1.029,0,0,0-.026.933l.8,1.692a9.931,9.931,0,0,1-1.286,1.286l-1.692-.8a1.026,1.026,0,0,0-.933.025,7.782,7.782,0,0,1-1.509.62,1.027,1.027,0,0,0-.677.641l-.631,1.774a8.4,8.4,0,0,1-1.815,0l-.631-1.774a1.029,1.029,0,0,0-.677-.641,7.757,7.757,0,0,1-1.509-.62,1.023,1.023,0,0,0-.933-.025l-1.692.8a10.006,10.006,0,0,1-1.286-1.286l.8-1.692a1.029,1.029,0,0,0-.026-.933,7.741,7.741,0,0,1-.62-1.508,1.028,1.028,0,0,0-.642-.677l-1.774-.631a8.331,8.331,0,0,1,0-1.815l1.774-.631a1.027,1.027,0,0,0,.641-.677,7.8,7.8,0,0,1,.62-1.509,1.028,1.028,0,0,0,.026-.933l-.8-1.692A10,10,0,0,1,5.65,4.365l1.692.8a1.026,1.026,0,0,0,.933-.025,7.743,7.743,0,0,1,1.508-.62,1.028,1.028,0,0,0,.677-.641l.631-1.774a8.315,8.315,0,0,1,1.815,0l.631,1.774a1.029,1.029,0,0,0,.677.641,7.757,7.757,0,0,1,1.509.62,1.023,1.023,0,0,0,.933.025l1.692-.8a10,10,0,0,1,1.286,1.286l-.8,1.692a1.028,1.028,0,0,0,.026.933,7.772,7.772,0,0,1,.62,1.508,1.027,1.027,0,0,0,.642.678l1.774.631a8.336,8.336,0,0,1,0,1.816Z" fill="#616161"/>
      <path id="Path_5560" data-name="Path 5560" d="M12,7a4.762,4.762,0,1,0,4.762,4.762A4.767,4.767,0,0,0,12,7Zm0,7.466a2.7,2.7,0,1,1,2.7-2.7A2.708,2.708,0,0,1,12,14.463Z" fill="#616161"/>
    </g>
  </g>
</svg>
