<svg xmlns="http://www.w3.org/2000/svg" xmlns:xlink="http://www.w3.org/1999/xlink" width="18" height="18" viewBox="0 0 18 18"><defs><clipPath id="a"><rect width="18" height="18" fill="#616161"/></clipPath></defs><g clip-path="url(#a)"><path d="M11.138,0H3.975A2.112,2.112,0,0,0,1.865,2.109V15.891A2.112,2.112,0,0,0,3.975,18H14.025a2.112,2.112,0,0,0,2.109-2.109V5.022Zm.391,2.387L13.74,4.609H12.232a.7.7,0,0,1-.7-.7Zm3.2,13.5a.7.7,0,0,1-.7.7H3.975a.7.7,0,0,1-.7-.7V2.109a.7.7,0,0,1,.7-.7h6.148v2.5a2.112,2.112,0,0,0,2.109,2.109h2.5v9.875ZM11.287,7.654l-.893.893a2.8,2.8,0,0,0-.724-.3V7H8.264V8.245a2.8,2.8,0,0,0-.724.3l-.893-.893-.994.994.893.893a2.8,2.8,0,0,0-.3.724H4.959v1.406H6.243a2.8,2.8,0,0,0,.3.724l-.893.893.994.994.893-.893a2.8,2.8,0,0,0,.724.3v1.249H9.67V13.692a2.8,2.8,0,0,0,.724-.3l.893.893.994-.994-.893-.893a2.8,2.8,0,0,0,.3-.724h1.284V10.266H11.69a2.8,2.8,0,0,0-.3-.724l.893-.893ZM8.994,12.369A1.406,1.406,0,1,1,10.4,10.963,1.406,1.406,0,0,1,8.994,12.369Z" fill="#616161"/></g></svg>