<svg xmlns="http://www.w3.org/2000/svg" xmlns:xlink="http://www.w3.org/1999/xlink" width="18" height="18" viewBox="0 0 18 18"><defs><clipPath id="a"><rect width="18" height="18" fill="#616161"/></clipPath></defs><g clip-path="url(#a)"><path d="M9,0A9,9,0,0,0,.582,12.183a.481.481,0,0,0,.032.084A9,9,0,1,0,9,0ZM9,1.37A7.337,7.337,0,0,1,16.588,9a5.5,5.5,0,0,1-.118,1.2L12.2,7.1a.465.465,0,0,0-.545,0L7.72,9.962,5.256,8.668a.513.513,0,0,0-.5,0l-3.1,2.183A5.219,5.219,0,0,1,1.424,9,7.327,7.327,0,0,1,9,1.37ZM3.428,11.346l1.583-1.051,1.364.556-1.04.783A14.075,14.075,0,0,1,3.428,11.346Zm12.153,1.426a11.513,11.513,0,0,0-5.885-.9c-.613,0-1.025.06-1.874,0l4.038-2.989,4.157,2.9A2.146,2.146,0,0,1,15.582,12.771ZM9.094,16.731a7.407,7.407,0,0,1-6.913-4.382,25.819,25.819,0,0,0,6.913.912c2.739,0,4.466.052,5.763.628A7.165,7.165,0,0,1,9.094,16.731Z" fill="#616161"/></g></svg>