<svg xmlns="http://www.w3.org/2000/svg" xmlns:xlink="http://www.w3.org/1999/xlink" width="18" height="18" viewBox="0 0 18 18"><defs><clipPath id="a"><rect width="18" height="18" fill="#616161"/></clipPath></defs><g clip-path="url(#a)"><path d="M9,0a.635.635,0,0,0-.635.635V12.219a.635.635,0,0,0,1.271,0V.635A.635.635,0,0,0,9,0Z" fill="#616161"/><path d="M13.276,8.418a.635.635,0,0,0-.9-.031L9,11.54,5.622,8.387a.635.635,0,0,0-.867.929l3.812,3.558a.635.635,0,0,0,.867,0l3.812-3.558A.636.636,0,0,0,13.276,8.418Z" fill="#616161"/><path d="M15.988,4.024H12.176a.635.635,0,1,0,0,1.271h3.176V16.729H2.647V5.294H5.824a.635.635,0,1,0,0-1.271H2.012a.635.635,0,0,0-.635.635V17.365A.635.635,0,0,0,2.012,18H15.988a.635.635,0,0,0,.635-.635V4.659A.635.635,0,0,0,15.988,4.024Z" fill="#616161"/></g></svg>