<svg xmlns="http://www.w3.org/2000/svg" xmlns:xlink="http://www.w3.org/1999/xlink" width="18" height="18" viewBox="0 0 18 18"><defs><clipPath id="a"><rect width="18" height="18" fill="#616161"/></clipPath></defs><g clip-path="url(#a)"><path d="M12.341,5.077H7.871a.713.713,0,0,0,0,1.427h4.47a.713.713,0,1,0,0-1.427Z" fill="#616161"/><path d="M14.053,8.524H7.871a.713.713,0,1,0,0,1.427h6.182a.713.713,0,1,0,0-1.427Z" fill="#616161"/><path d="M17.287.606H4.66a.713.713,0,0,0-.713.713V8.049H2.687A2.69,2.69,0,0,0,0,10.736v3.971A2.688,2.688,0,0,0,3.044,17.37H14.814A3.19,3.19,0,0,0,18,14.184V1.32A.713.713,0,0,0,17.287.606ZM3.947,14.707a1.262,1.262,0,0,1-1.016,1.236H2.687v.024a1.262,1.262,0,0,1-1.26-1.26V10.736a1.262,1.262,0,0,1,1.26-1.26h1.26v5.231Zm12.626-.523a1.783,1.783,0,0,1-1.76,1.76H5.072a2.669,2.669,0,0,0,.3-1.236V2.033h11.2Z" fill="#616161"/><path d="M12.341,11.758H7.871a.713.713,0,0,0,0,1.427h4.47a.713.713,0,1,0,0-1.427Z" fill="#616161"/></g></svg>