<svg xmlns="http://www.w3.org/2000/svg" xmlns:xlink="http://www.w3.org/1999/xlink" width="18" height="18" viewBox="0 0 18 18"><defs><clipPath id="a"><rect width="18" height="18" fill="#616161"/></clipPath><clipPath id="b"><path d="M18,0H0V18H18Z" fill="none"/></clipPath></defs><g clip-path="url(#a)"><g clip-path="url(#b)"><path d="M6.155,3.9a2.419,2.419,0,0,0-2.4-2.4A2.424,2.424,0,0,0,1.488,3.121,5.011,5.011,0,0,0,0,2.852,3.925,3.925,0,0,1,3.755,0,3.893,3.893,0,0,1,6.407,6.749a7.1,7.1,0,0,1,4.4,6.525.75.75,0,0,1-1.5,0A5.6,5.6,0,0,0,4.88,7.842a5.013,5.013,0,0,0-.3-1.69A2.423,2.423,0,0,0,6.155,3.9Z" transform="translate(7.195)" fill="#616161"/><path d="M8.347,10.7a3.9,3.9,0,1,1,5.205,0A7.1,7.1,0,0,1,18,17.25a.75.75,0,0,1-1.5,0,5.588,5.588,0,0,0-5.532-5.55h-.037A5.588,5.588,0,0,0,5.4,17.25a.75.75,0,0,1-1.5,0A7.1,7.1,0,0,1,8.347,10.7Zm2.6-5.3a2.4,2.4,0,0,1,.016,4.8h-.033a2.4,2.4,0,0,1,.016-4.8Z" transform="translate(-3.9)" fill="#616161" fill-rule="evenodd"/></g></g></svg>