<svg xmlns="http://www.w3.org/2000/svg" xmlns:xlink="http://www.w3.org/1999/xlink" width="18" height="18" viewBox="0 0 18 18"><defs><clipPath id="a"><rect width="18" height="18" fill="#616161"/></clipPath></defs><g clip-path="url(#a)"><path d="M16.7,1.735H1.3A1.086,1.086,0,0,0,.217,2.819v14.1A1.086,1.086,0,0,0,1.3,18H16.7a1.086,1.086,0,0,0,1.084-1.084V2.819A1.086,1.086,0,0,0,16.7,1.735ZM16.482,16.7H1.518V3.036H16.482V16.7Z" fill="#616161"/><rect width="16.265" height="1.301" transform="translate(0.867 6.072)" fill="#616161"/><path d="M4.771,0A.651.651,0,0,0,4.12.651V4.12a.651.651,0,0,0,1.3,0V.651A.651.651,0,0,0,4.771,0Z" fill="#616161"/><path d="M13.446,0A.651.651,0,0,0,12.8.651V4.12a.651.651,0,0,0,1.3,0V.651A.651.651,0,0,0,13.446,0Z" fill="#616161"/><path d="M11.494,13.012H6.723a.651.651,0,0,0,0,1.3h4.771a.651.651,0,1,0,0-1.3Z" fill="#616161"/><path d="M11.494,9.976H6.723a.651.651,0,0,0,0,1.3h4.771a.651.651,0,1,0,0-1.3Z" fill="#616161"/></g></svg>