<svg xmlns="http://www.w3.org/2000/svg" xmlns:xlink="http://www.w3.org/1999/xlink" width="18" height="18" viewBox="0 0 18 18"><defs><clipPath id="a"><rect width="18" height="18" fill="#616161"/></clipPath></defs><g clip-path="url(#a)"><path d="M9,0A1.976,1.976,0,0,0,7.027,1.973V3.048H8.342V1.973a.658.658,0,1,1,1.315,0V3.048h1.315V1.973A1.975,1.975,0,0,0,9,0Z" fill="#616161"/><path d="M9,2.236a6.179,6.179,0,0,0-6.139,6.2V12.3H4.177V8.441a4.824,4.824,0,1,1,9.647,0v3.837h1.315V8.441A6.179,6.179,0,0,0,9,2.236Z" fill="#616161"/><path d="M14.043,11.62H3.957A3.073,3.073,0,0,0,.888,14.689a.658.658,0,0,0,.658.658H16.454a.658.658,0,0,0,.658-.658A3.073,3.073,0,0,0,14.043,11.62ZM2.331,14.032a1.757,1.757,0,0,1,1.626-1.1H14.043a1.756,1.756,0,0,1,1.626,1.1Z" fill="#616161"/><path d="M9.987,14.689V15.7a.987.987,0,0,1-1.973,0V14.689H6.7V15.7a2.3,2.3,0,0,0,4.6,0V14.689H9.987Z" fill="#616161"/></g></svg>