<svg xmlns="http://www.w3.org/2000/svg" xmlns:xlink="http://www.w3.org/1999/xlink" width="18" height="18" viewBox="0 0 18 18"><defs><clipPath id="a"><rect width="18" height="18" fill="#616161"/></clipPath></defs><g clip-path="url(#a)"><g transform="translate(-1.131 -1.146)"><path d="M19.1,8.057a.634.634,0,0,0-.512-.431l-5.451-.792L10.7,1.894a.66.66,0,0,0-1.136,0L7.126,6.834l-5.451.792a.633.633,0,0,0-.351,1.08l3.944,3.845-.931,5.431a.633.633,0,0,0,.919.667l4.877-2.563,4.876,2.563a.633.633,0,0,0,.919-.667L15,12.551,18.94,8.706a.634.634,0,0,0,.161-.649Zm-5.228,3.82a.635.635,0,0,0-.182.56l.771,4.494-4.036-2.121a.628.628,0,0,0-.588,0L5.8,16.931l.771-4.494a.634.634,0,0,0-.182-.56L3.126,8.695l4.511-.655a.633.633,0,0,0,.477-.346L10.132,3.6l2.017,4.088a.633.633,0,0,0,.477.346l4.511.655Z" fill="#616161"/></g></g></svg>