<svg width="44" height="44" viewBox="0 0 44 44" fill="none" xmlns="http://www.w3.org/2000/svg">
<g clip-path="url(#clip0_7300_5123)">
<path d="M0.709961 24.1292H9.22609V40.4517H0.709961V24.1292Z" fill="#F66A6A"/>
<path d="M23.4199 7.8064H27.678V14.9032H23.4199V7.8064Z" fill="#F66A6A"/>
<path d="M19.1617 7.09677C17.2052 7.09677 15.6133 5.50485 15.6133 3.54839C15.6133 1.59192 17.2052 0 19.1617 0C21.1181 0 22.7101 1.59192 22.7101 3.54839C22.7101 5.50485 21.1181 7.09677 19.1617 7.09677Z" fill="#F66A6A"/>
<path d="M26.2583 7.09677C24.3019 7.09677 22.71 5.50485 22.71 3.54839C22.71 1.59192 24.3019 0 26.2583 0C28.2148 0 29.8067 1.59192 29.8067 3.54839C29.8067 5.50485 28.2148 7.09677 26.2583 7.09677Z" fill="#F66A6A"/>
<path d="M18.4512 2.83862H19.8705V4.25798H18.4512V2.83862Z" fill="#3F3F3F"/>
<path d="M25.5488 2.83862H26.9682V4.25798H25.5488V2.83862Z" fill="#3F3F3F"/>
<path d="M32.3513 8.51613H30.5161V7.09677H14.9032V11.5357L10.6708 15.3447L6.74055 11.4144C6.63694 11.3108 6.52328 11.2235 6.40685 11.1396C8.44648 10.5218 9.93548 8.62528 9.93548 6.3871V4.96774C9.93548 2.22848 7.707 0 4.96774 0C2.22848 0 0 2.22848 0 4.96774V6.3871C0 8.20253 0.982044 9.78925 2.43986 10.6559C0.899225 12.1193 0 14.1786 0 16.3226V44H10.1171C11.1909 44 12.0645 43.1264 12.0645 42.0525C12.0645 41.2133 11.5295 40.4707 10.7332 40.2052L9.93548 39.9398V20.4826C10.1548 20.5415 10.3797 20.5806 10.6084 20.5806C11.2675 20.5806 11.8978 20.335 12.3847 19.89L16.3226 16.28V18.4516H17.5908L12.6231 44H16.9082L18.5639 35.4839H26.8562L28.5118 44H32.7969L27.8292 18.4516H29.0968V15.6129H30.5161V14.1935H32.3513L34.4803 16.3226H36.9032V6.3871H34.4803L32.3513 8.51613ZM1.41935 6.3871V4.96774C1.41935 3.01128 3.01128 1.41935 4.96774 1.41935C6.92421 1.41935 8.51613 3.01128 8.51613 4.96774V6.3871C8.51613 8.34356 6.92421 9.93548 4.96774 9.93548C3.01128 9.93548 1.41935 8.34356 1.41935 6.3871ZM1.41935 16.3226C1.41935 15.2913 1.67682 14.2871 2.14185 13.3889C2.17512 14.1461 2.51922 14.8464 3.11489 15.3232L8.51613 19.6447V23.4194H1.41935V16.3226ZM4.25806 24.8387V39.7419H1.41935V24.8387H4.25806ZM1.41935 42.5806V41.1613H4.25806V42.5806H1.41935ZM10.6452 42.0525C10.6452 42.3443 10.4088 42.5806 10.1171 42.5806H5.67742V41.1613H9.11076L10.2848 41.5522C10.5003 41.6239 10.6452 41.8256 10.6452 42.0525ZM8.51613 39.7419H5.67742V24.8387H8.51613V39.7419ZM11.4259 18.8432C11 19.233 10.3038 19.2562 9.85301 18.8965L4.00198 14.2147C3.71368 13.9849 3.54839 13.6408 3.54839 13.2725C3.54839 12.6061 4.09 12.0645 4.75636 12.0645H4.88319C5.20615 12.0645 5.50936 12.19 5.73771 12.4187L10.6195 17.3005L17.7953 10.8423C17.9363 10.7155 18.1186 10.6452 18.3088 10.6452H18.392C18.8165 10.6452 19.1613 10.99 19.1613 11.4137C19.1613 11.6289 19.0705 11.8351 18.9114 11.98L11.4259 18.8432ZM15.7376 42.5806H14.3453L19.0372 18.4516H20.4303L15.7376 42.5806ZM23.5441 18.4516L26.028 31.2258H19.3914L21.8752 18.4516H23.5441ZM18.839 34.0645L19.1152 32.6452H26.3035L26.5796 34.0645H18.839ZM31.0747 42.5806H29.6824L24.9905 18.4516H26.3835L31.0747 42.5806ZM27.6774 17.0323H17.7419V15.6129H27.6774V17.0323ZM29.0968 14.1935H18.5985L19.871 13.0268C20.3225 12.6131 20.5806 12.0254 20.5806 11.4137C20.5806 10.2072 19.5993 9.22581 18.3927 9.22581H18.3095C17.7683 9.22581 17.2481 9.42506 16.8462 9.78787L16.3226 10.2584V8.51613H23.4194V9.93548H24.8387V8.51613H26.2581V9.93548H27.6774V8.51613H29.0968V14.1935ZM31.9355 12.7742H30.5161V9.93548H31.9355V12.7742ZM35.4839 7.80645V14.9032H35.068L33.3548 13.19V9.51966L35.068 7.80645H35.4839Z" fill="#3F3F3F"/>
<path d="M26.2578 11.3547H27.6772V12.7741H26.2578V11.3547Z" fill="#3F3F3F"/>
<path d="M23.4189 11.3547H24.8383V12.7741H23.4189V11.3547Z" fill="#3F3F3F"/>
<path d="M37.8203 8.34432L39.8277 6.33691L40.8312 7.34079L38.8238 9.34784L37.8203 8.34432Z" fill="#3F3F3F"/>
<path d="M40.832 5.33322L41.8356 4.32935L42.8391 5.33322L41.8356 6.33675L40.832 5.33322Z" fill="#3F3F3F"/>
<path d="M37.8203 14.3661L38.8238 13.3625L40.8312 15.37L39.8277 16.3735L37.8203 14.3661Z" fill="#3F3F3F"/>
<path d="M40.8311 17.3763L41.8349 16.3728L42.8385 17.3763L41.8349 18.3802L40.8311 17.3763Z" fill="#3F3F3F"/>
<path d="M38.3223 10.6453H43.9997V12.0646H38.3223V10.6453Z" fill="#3F3F3F"/>
</g>
<defs>
<clipPath id="clip0_7300_5123">
<rect width="44" height="44" fill="white"/>
</clipPath>
</defs>
</svg>
