<svg width="44" height="44" viewBox="0 0 44 44" fill="none" xmlns="http://www.w3.org/2000/svg">
<path d="M19.1667 19.064C19.1972 17.5449 19.9304 16.1006 21.1481 15.1864L21.9999 14.5485V10.6453H17.7418V11.3549C17.7418 12.9226 16.4708 14.1937 14.9031 14.1937C13.3354 14.1937 12.0644 12.9226 12.0644 11.3549V10.6453H7.80633V14.5485L8.65738 15.1864C9.87576 16.1006 10.609 17.5449 10.6395 19.064L7.72559 27.8054L7.9484 28.1034C8.04404 28.2309 10.3429 31.2259 14.9031 31.2259C19.4633 31.2259 21.7622 28.2302 21.8578 28.1034L22.0806 27.8061L19.1667 19.064Z" fill="#F66A6A"/>
<path d="M26.2583 26.9678H27.6777V29.8065H26.2583V26.9678Z" fill="#3F3F3F"/>
<path d="M31.9355 26.9678H33.3549V29.8065H31.9355V26.9678Z" fill="#3F3F3F"/>
<path d="M29.0967 26.9678H30.516V29.8065H29.0967V26.9678Z" fill="#3F3F3F"/>
<path d="M42.2643 36.2334L39.0323 31.7078V7.8064H39.8726C40.1664 8.63043 40.9471 9.22576 41.871 9.22576C43.0446 9.22576 44 8.2704 44 7.09673C44 5.92306 43.0446 4.96769 41.871 4.96769C40.9471 4.96769 40.1664 5.56302 39.8726 6.38705H30.5161C30.5161 4.82146 29.243 3.54834 27.6774 3.54834C26.1118 3.54834 24.8387 4.82146 24.8387 6.38705H15.6129C15.6129 4.82146 14.3398 3.54834 12.7742 3.54834C11.2086 3.54834 9.93548 4.82146 9.93548 6.38705H4.12743C3.83357 5.56302 3.05286 4.96769 2.12903 4.96769C0.955362 4.96769 0 5.92306 0 7.09673C0 8.2704 0.955362 9.22576 2.12903 9.22576C3.05286 9.22576 3.83357 8.63043 4.12743 7.8064H4.96774V31.7078L1.73573 36.2334C0.749528 36.4184 0 37.2837 0 38.3225V40.4516H44V38.3225C44 37.2837 43.2505 36.4184 42.2643 36.2334ZM41.871 6.38705C42.2625 6.38705 42.5806 6.70585 42.5806 7.09673C42.5806 7.4876 42.2625 7.8064 41.871 7.8064C41.4794 7.8064 41.1613 7.4876 41.1613 7.09673C41.1613 6.70585 41.4794 6.38705 41.871 6.38705ZM2.12903 7.8064C1.73746 7.8064 1.41935 7.4876 1.41935 7.09673C1.41935 6.70585 1.73746 6.38705 2.12903 6.38705C2.5206 6.38705 2.83871 6.70585 2.83871 7.09673C2.83871 7.4876 2.5206 7.8064 2.12903 7.8064ZM27.6774 4.96769C28.4602 4.96769 29.0968 5.60426 29.0968 6.38705H26.2581C26.2581 5.60426 26.8946 4.96769 27.6774 4.96769ZM14.9032 11.5208C15.2799 11.8586 15.7775 12.0645 16.3226 12.0645H16.911C16.6178 12.8906 15.8288 13.4838 14.9032 13.4838C13.9777 13.4838 13.1886 12.8906 12.8955 12.0645H13.4839C14.0289 12.0645 14.5266 11.8586 14.9032 11.5208ZM12.7742 4.96769C13.557 4.96769 14.1935 5.60426 14.1935 6.38705H11.3548C11.3548 5.60426 11.9914 4.96769 12.7742 4.96769ZM14.1935 7.8064V9.93544C14.1935 10.3263 13.8754 10.6451 13.4839 10.6451H11.3548V11.3548C11.3548 13.3113 12.9468 14.9032 14.9032 14.9032C16.8597 14.9032 18.4516 13.3113 18.4516 11.3548V10.6451H16.3226C15.931 10.6451 15.6129 10.3263 15.6129 9.93544V7.8064H29.0968V9.62253C28.3431 10.2809 27.3908 10.6451 26.38 10.6451H23.4194V16.3225H26.9677V14.9032H24.8387V12.0645H26.38C27.6383 12.0645 28.8327 11.6493 29.8064 10.8828C30.7802 11.6493 31.9746 12.0645 33.2329 12.0645H34.7742V14.9032H32.6452V16.3225H36.1935V10.6451H33.2329C32.2221 10.6451 31.2691 10.2809 30.5161 9.62253V7.8064H37.6129V31.7078L34.3809 36.2334C33.3947 36.4184 32.6452 37.2837 32.6452 38.3225V39.0322H11.3548V38.3225C11.3548 37.2837 10.6053 36.4184 9.61911 36.2334L6.3871 31.7078V7.8064H14.1935ZM35.4839 39.0322H34.0645V38.3225C34.0645 37.9317 34.3826 37.6129 34.7742 37.6129C35.1658 37.6129 35.4839 37.9317 35.4839 38.3225V39.0322ZM9.22581 37.6129C9.61738 37.6129 9.93548 37.9317 9.93548 38.3225V39.0322H8.51613V38.3225C8.51613 37.9317 8.83424 37.6129 9.22581 37.6129ZM2.83871 39.0322H1.41935V38.3225C1.41935 37.9317 1.73746 37.6129 2.12903 37.6129C2.5206 37.6129 2.83871 37.9317 2.83871 38.3225V39.0322ZM3.26736 36.53L5.67742 33.1569L8.08748 36.53C7.49354 36.908 7.09677 37.5682 7.09677 38.3225V39.0322H4.25806V38.3225C4.25806 37.5682 3.8613 36.908 3.26736 36.53ZM39.7419 38.3225V39.0322H36.9032V38.3225C36.9032 37.5682 36.5065 36.908 35.9125 36.53L38.3226 33.1569L40.7326 36.53C40.1387 36.908 39.7419 37.5682 39.7419 38.3225ZM42.5806 39.0322H41.1613V38.3225C41.1613 37.9317 41.4794 37.6129 41.871 37.6129C42.2625 37.6129 42.5806 37.9317 42.5806 38.3225V39.0322Z" fill="#3F3F3F"/>
<path d="M33.3551 26.9678H26.2583V14.9032C26.2583 14.1204 26.8949 13.4839 27.6777 13.4839H31.9357C32.7185 13.4839 33.3551 14.1204 33.3551 14.9032V26.9678Z" fill="#F66A6A"/>
</svg>
