<svg width="20" height="19" viewBox="0 0 20 19" fill="none" xmlns="http://www.w3.org/2000/svg">
<path d="M4.91676 15.4167L0.833008 18.625V1.66667C0.833008 1.42355 0.929585 1.19039 1.10149 1.01849C1.2734 0.846577 1.50656 0.75 1.74967 0.75H18.2497C18.4928 0.75 18.7259 0.846577 18.8979 1.01849C19.0698 1.19039 19.1663 1.42355 19.1663 1.66667V14.5C19.1663 14.7431 19.0698 14.9763 18.8979 15.1482C18.7259 15.3201 18.4928 15.4167 18.2497 15.4167H4.91676ZM4.28242 13.5833H17.333V2.58333H2.66634V14.8529L4.28242 13.5833ZM9.08301 7.16667H10.9163V9H9.08301V7.16667ZM5.41634 7.16667H7.24967V9H5.41634V7.16667ZM12.7497 7.16667H14.583V9H12.7497V7.16667Z" fill="#828282"/>
</svg>
