<svg width="20" height="20" viewBox="0 0 20 20" fill="none" xmlns="http://www.w3.org/2000/svg">
<path d="M7.99984 15.5491L6.22984 17.2691C5.76571 17.7332 5.13621 17.994 4.47984 17.994C3.82346 17.994 3.19397 17.7332 2.72984 17.2691C2.26571 16.805 2.00496 16.1755 2.00496 15.5191C2.00496 14.8627 2.26571 14.2332 2.72984 13.7691L7.26984 9.21912C7.71545 8.77206 8.31586 8.5134 8.94685 8.49664C9.57784 8.47989 10.1911 8.70633 10.6598 9.12912L10.7798 9.22912C10.9695 9.41477 11.2251 9.51749 11.4904 9.51467C11.7558 9.51186 12.0092 9.40375 12.1948 9.21412C12.3805 9.02449 12.4832 8.76888 12.4804 8.50351C12.4776 8.23815 12.3695 7.98477 12.1798 7.79912C12.1234 7.72614 12.0633 7.65605 11.9998 7.58912C11.1462 6.84643 10.0422 6.45597 8.9114 6.49681C7.78064 6.53766 6.70767 7.00677 5.90984 7.80912L1.30984 12.3591C0.528193 13.2099 0.105457 14.3298 0.129911 15.4849C0.154365 16.64 0.624118 17.7409 1.44107 18.5579C2.25802 19.3748 3.359 19.8446 4.51408 19.869C5.66917 19.8935 6.78904 19.4708 7.63984 18.6891L9.36984 16.9991C9.54065 16.8128 9.63455 16.5686 9.63265 16.3159C9.63074 16.0631 9.53316 15.8204 9.35955 15.6366C9.18594 15.4529 8.94917 15.3417 8.6969 15.3255C8.44463 15.3092 8.19557 15.3891 7.99984 15.5491ZM18.6898 1.30912C17.8486 0.473125 16.7108 0.00390625 15.5248 0.00390625C14.3389 0.00390625 13.2011 0.473125 12.3598 1.30912L10.6298 2.99912C10.459 3.18547 10.3651 3.4296 10.367 3.68238C10.3689 3.93517 10.4665 4.17785 10.6401 4.3616C10.8137 4.54535 11.0505 4.65653 11.3028 4.67277C11.555 4.68901 11.8041 4.6091 11.9998 4.44912L13.7298 2.72912C14.194 2.26499 14.8235 2.00424 15.4798 2.00424C16.1362 2.00424 16.7657 2.26499 17.2298 2.72912C17.694 3.19325 17.9547 3.82274 17.9547 4.47912C17.9547 5.1355 17.694 5.76499 17.2298 6.22912L12.6898 10.7791C12.2442 11.2262 11.6438 11.4848 11.0128 11.5016C10.3818 11.5183 9.76854 11.2919 9.29984 10.8691L9.17984 10.7691C8.99021 10.5835 8.73459 10.4807 8.46923 10.4836C8.20387 10.4864 7.95049 10.5945 7.76484 10.7841C7.57919 10.9737 7.47647 11.2294 7.47928 11.4947C7.48209 11.7601 7.59021 12.0135 7.77984 12.1991C7.85247 12.2734 7.92926 12.3435 8.00984 12.4091C8.86451 13.1496 9.96806 13.5386 11.0981 13.4977C12.2282 13.4569 13.3008 12.9893 14.0998 12.1891L18.6498 7.63912C19.4912 6.80319 19.9676 5.66835 19.9751 4.48237C19.9826 3.29639 19.5205 2.15561 18.6898 1.30912Z" fill="#3F3F3F"/>
</svg>
