<svg width="100" height="100" viewBox="0 0 100 100" fill="none" xmlns="http://www.w3.org/2000/svg">
<g clip-path="url(#clip0_7344_8373)">
<path d="M69.3555 27.4197H46.7749V1.61328H69.3555V27.4197Z" fill="#F66A6A"/>
<path d="M99.9999 14.1357L92.9324 0H23.1964L16.1289 14.1357V16.4787L24.084 33.9789L17.0905 56.3547L20.169 57.3163L27.5287 33.7631L19.5146 16.129H96.6158L88.6127 33.7371L96.7741 63.1245V64.5161H40.2303V67.7419H99.9999V62.9032L92.0338 34.0049L99.9999 16.4787V14.1357ZM25.1905 3.22581H90.9383L95.777 12.9032H20.3518L25.1905 3.22581Z" fill="#3F3F3F"/>
<path d="M22.5806 99.9999C10.1287 99.9999 0 89.8712 0 77.4193C0 64.9673 10.1287 54.8386 22.5806 54.8386C35.0326 54.8386 45.1613 64.9673 45.1613 77.4193C45.1613 89.8712 35.0326 99.9999 22.5806 99.9999Z" fill="#F66A6A"/>
<path d="M29.0324 90.9905L22.5808 84.5389L16.1292 90.9905L9.00977 83.8711L15.4614 77.4195L9.00977 70.9678L16.1292 63.8484L22.5808 70.3L29.0324 63.8484L36.1519 70.9678L29.7003 77.4195L36.1519 83.8711L29.0324 90.9905ZM22.5808 79.9774L29.0324 86.429L31.5904 83.8711L25.1388 77.4195L31.5904 70.9678L29.0324 68.4099L22.5808 74.8615L16.1292 68.4099L13.5713 70.9678L20.0229 77.4195L13.5713 83.8711L16.1292 86.429L22.5808 79.9774Z" fill="#3F3F3F"/>
<path d="M90.3226 61.2904H64.5161V45.1614H90.3226V61.2904Z" fill="#F66A6A"/>
<path d="M70.9678 51.6133H83.871V54.8391H70.9678V51.6133Z" fill="#3F3F3F"/>
<path d="M53.2251 22.5801H56.4509V27.4188H53.2251V22.5801Z" fill="#3F3F3F"/>
<path d="M59.6772 22.5798H62.903V27.4186H59.6772V22.5798Z" fill="#3F3F3F"/>
</g>
<defs>
<clipPath id="clip0_7344_8373">
<rect width="100" height="100" fill="white"/>
</clipPath>
</defs>
</svg>
