<svg width="20" height="20" viewBox="0 0 20 20" fill="none" xmlns="http://www.w3.org/2000/svg">
<path d="M9.99979 0.833008C8.56838 0.834043 7.15711 1.17028 5.87901 1.81479C4.60091 2.4593 3.49151 3.39417 2.63967 4.54451C1.78782 5.69486 1.21722 7.02871 0.973545 8.43922C0.729875 9.84974 0.819916 11.2977 1.23646 12.6672C1.23115 12.6975 1.23115 12.7285 1.23646 12.7588C1.58183 13.8697 2.13902 14.9032 2.87729 15.8022L1.04396 17.6355C0.916761 17.7644 0.830598 17.9281 0.796339 18.1059C0.762079 18.2838 0.781258 18.4677 0.851456 18.6347C0.92932 18.8042 1.05704 18.9459 1.21755 19.0409C1.37807 19.1359 1.56374 19.1796 1.74979 19.1663H9.99979C11.913 19.1649 13.7779 18.5649 15.3329 17.4504C16.888 16.3358 18.0554 14.7627 18.6715 12.9513V12.878C18.9909 11.9516 19.1581 10.9796 19.1665 9.99968C19.1665 8.79589 18.9294 7.60389 18.4687 6.49174C18.008 5.37959 17.3328 4.36907 16.4816 3.51786C15.6304 2.66666 14.6199 1.99145 13.5077 1.53078C12.3956 1.07011 11.2036 0.833008 9.99979 0.833008ZM9.99979 17.333H3.95896L4.23396 17.0672L11.9431 9.34884C12.1145 9.18088 12.3448 9.08681 12.5848 9.08681C12.8247 9.08681 13.0551 9.18088 13.2265 9.34884L16.5448 12.6488L16.7556 12.8505C16.195 14.1791 15.2551 15.313 14.0535 16.1103C12.8519 16.9076 11.4419 17.3329 9.99979 17.333ZM3.16146 12.6305L4.60979 11.1822C4.78154 11.0114 5.01387 10.9156 5.25604 10.9156C5.49821 10.9156 5.73054 11.0114 5.90229 11.1822L6.69979 11.9797L4.20646 14.4913C3.76546 13.9279 3.41307 13.3003 3.16146 12.6305ZM17.2873 10.7972L14.5373 8.04717C14.0217 7.53219 13.3227 7.24293 12.594 7.24293C11.8652 7.24293 11.1662 7.53219 10.6506 8.04717L8.00146 10.6963L7.19479 9.89884C6.67954 9.38665 5.98255 9.09916 5.25604 9.09916C4.52953 9.09916 3.83254 9.38665 3.31729 9.89884L2.66646 10.513C2.65732 10.342 2.65732 10.1707 2.66646 9.99968C2.66646 8.05475 3.43907 6.18949 4.81434 4.81423C6.18961 3.43896 8.05487 2.66634 9.99979 2.66634C11.9447 2.66634 13.81 3.43896 15.1852 4.81423C16.5605 6.18949 17.3331 8.05475 17.3331 9.99968C17.3468 10.2623 17.3468 10.5254 17.3331 10.788L17.2873 10.7972Z" fill="#828282"/>
</svg>
