<svg width="44" height="44" viewBox="0 0 44 44" fill="none" xmlns="http://www.w3.org/2000/svg">
<g clip-path="url(#clip0_7300_5141)">
<path d="M23.4192 35.4838C18.3322 35.4838 14.1934 31.345 14.1934 26.258C14.1934 21.1711 18.3322 17.0322 23.4192 17.0322C28.5061 17.0322 32.645 21.1711 32.645 26.258C32.645 31.345 28.5061 35.4838 23.4192 35.4838Z" fill="#F66A6A"/>
<path d="M24.839 12.7742H19.1615C18.3788 12.7742 17.7422 12.1376 17.7422 11.3548V9.93547C17.7422 9.15269 18.3788 8.51611 19.1615 8.51611H24.839C25.6217 8.51611 26.2583 9.15269 26.2583 9.93547V11.3548C26.2583 12.1376 25.6217 12.7742 24.839 12.7742Z" fill="#F66A6A"/>
<path d="M18.4512 29.8065H28.3867V22.7097H18.4512V29.8065ZM19.8705 24.1291H26.9673V28.3871H19.8705V24.1291Z" fill="#3F3F3F"/>
<path d="M4.9679 18.4517C6.14171 18.4517 7.09693 17.4964 7.09693 16.3226C7.09693 15.1488 6.14171 14.1936 4.9679 14.1936C3.79409 14.1936 2.83887 15.1488 2.83887 16.3226C2.83887 17.4964 3.79409 18.4517 4.9679 18.4517ZM4.9679 15.613C5.35893 15.613 5.67758 15.9316 5.67758 16.3226C5.67758 16.7137 5.35893 17.0323 4.9679 17.0323C4.57687 17.0323 4.25822 16.7137 4.25822 16.3226C4.25822 15.9316 4.57687 15.613 4.9679 15.613Z" fill="#3F3F3F"/>
<path d="M40.4516 11.3549H38.3226V10.6452C38.3226 9.47143 37.3674 8.5162 36.1935 8.5162H33.3548C32.181 8.5162 31.2258 9.47143 31.2258 10.6452V11.3549H29.651L28.9037 8.36575C28.5077 6.78317 27.0926 5.67749 25.4611 5.67749H18.5389C16.9074 5.67749 15.4923 6.78317 15.0963 8.36504L14.349 11.3549H12.7742V9.93555C12.7742 9.15278 12.1376 8.5162 11.3548 8.5162H9.93548C9.15271 8.5162 8.51613 9.15278 8.51613 9.93555V11.3549H7.09677V9.93555C7.09677 9.15278 6.46019 8.5162 5.67742 8.5162H4.25806C3.47529 8.5162 2.83871 9.15278 2.83871 9.93555V11.4266C1.22135 11.7566 0 13.1901 0 14.9033V16.3227V17.742V34.7743C0 36.7308 1.59181 38.3227 3.54839 38.3227H40.4516C42.4082 38.3227 44 36.7308 44 34.7743V14.9033C44 12.9467 42.4082 11.3549 40.4516 11.3549ZM36.9032 10.6452V11.3549H35.4839V9.93555H36.1935C36.5846 9.93555 36.9032 10.2542 36.9032 10.6452ZM32.6452 10.6452C32.6452 10.2542 32.9638 9.93555 33.3548 9.93555H34.0645V11.3549H32.6452V10.6452ZM9.93548 9.93555H11.3548V11.3549H9.93548V9.93555ZM5.67742 9.93555V11.3549H4.96774H4.25806V9.93555H5.67742ZM1.41935 14.9033C1.41935 13.7295 2.37458 12.7743 3.54839 12.7743H4.96774H6.3871C7.5609 12.7743 8.51613 13.7295 8.51613 14.9033V16.3227V17.742C8.51613 18.9158 7.5609 19.871 6.3871 19.871H3.54839C2.37458 19.871 1.41935 18.9158 1.41935 17.742V16.3227V14.9033ZM1.41935 34.7743V20.5623C2.01406 21.0129 2.74645 21.2904 3.54839 21.2904H6.3871C7.18903 21.2904 7.92142 21.0129 8.51613 20.5623V36.9033H3.54839C2.37458 36.9033 1.41935 35.9481 1.41935 34.7743ZM34.3825 31.2649C35.0119 31.4097 35.4839 31.9717 35.4839 32.6452C35.4839 33.428 34.8473 34.0646 34.0645 34.0646C33.6494 34.0646 33.2605 33.8772 32.9943 33.5685C33.5386 32.8574 34.0056 32.0867 34.3825 31.2649ZM23.4194 36.9033C17.5496 36.9033 12.7742 32.1279 12.7742 26.2581C12.7742 20.3884 17.5496 15.613 23.4194 15.613C29.2891 15.613 34.0645 20.3884 34.0645 26.2581C34.0645 32.1279 29.2891 36.9033 23.4194 36.9033ZM32.0703 34.6487C32.5941 35.1696 33.3052 35.4839 34.0645 35.4839C35.6301 35.4839 36.9032 34.2108 36.9032 32.6452C36.9032 31.3735 36.0566 30.3068 34.9019 29.947C35.2766 28.7832 35.4839 27.5448 35.4839 26.2581C35.4839 19.6056 30.0719 14.1936 23.4194 14.1936C16.7668 14.1936 11.3548 19.6056 11.3548 26.2581C11.3548 30.8632 13.9508 34.8708 17.754 36.9033H9.93548V17.742V16.3227V14.9033C9.93548 14.1014 9.658 13.369 9.20735 12.7743H15.4568L16.473 8.70923C16.7108 7.76039 17.5603 7.09685 18.5389 7.09685H25.4611C26.4397 7.09685 27.2892 7.76039 27.5263 8.70923L28.5425 12.7743H40.4516C41.6254 12.7743 42.5806 13.7295 42.5806 14.9033V15.613H41.1613C39.5957 15.613 38.3226 16.8861 38.3226 18.4517V36.9033H29.0847C30.1961 36.3093 31.2003 35.5457 32.0703 34.6487V34.6487ZM40.4516 36.9033H39.7419V18.4517C39.7419 17.6689 40.3785 17.0323 41.1613 17.0323H42.5806V34.7743C42.5806 35.9481 41.6254 36.9033 40.4516 36.9033Z" fill="#3F3F3F"/>
<path d="M6.38741 35.4841C6.77935 35.4841 7.09709 35.1663 7.09709 34.7744C7.09709 34.3824 6.77935 34.0647 6.38741 34.0647C5.99547 34.0647 5.67773 34.3824 5.67773 34.7744C5.67773 35.1663 5.99547 35.4841 6.38741 35.4841Z" fill="#3F3F3F"/>
<path d="M3.54855 35.4841C3.94049 35.4841 4.25822 35.1663 4.25822 34.7744C4.25822 34.3824 3.94049 34.0647 3.54855 34.0647C3.1566 34.0647 2.83887 34.3824 2.83887 34.7744C2.83887 35.1663 3.1566 35.4841 3.54855 35.4841Z" fill="#3F3F3F"/>
<path d="M3.54855 32.6452C3.94049 32.6452 4.25822 32.3274 4.25822 31.9355C4.25822 31.5436 3.94049 31.2258 3.54855 31.2258C3.1566 31.2258 2.83887 31.5436 2.83887 31.9355C2.83887 32.3274 3.1566 32.6452 3.54855 32.6452Z" fill="#3F3F3F"/>
</g>
<defs>
<clipPath id="clip0_7300_5141">
<rect width="44" height="44" fill="white"/>
</clipPath>
</defs>
</svg>
