<svg width="170" height="29" viewBox="0 0 170 29" fill="none" xmlns="http://www.w3.org/2000/svg">
<g clip-path="url(#clip0_7422_7456)">
<path d="M7.10137 9.19618C7.15774 9.4093 7.15561 9.63363 7.09521 9.84565L14.2265 13.9587L14.2333 5.78662C14.0024 5.73031 13.7923 5.60994 13.6272 5.43945L7.10137 9.19618Z" fill="#F0A93E"/>
<path d="M7.14266 19.4908C7.14229 19.5919 7.12967 19.6926 7.10509 19.7907L13.6334 23.5523C13.794 23.3905 13.9955 23.2751 14.2167 23.2187L14.2234 15.041L7.09277 19.1535C7.1247 19.2632 7.14149 19.3766 7.14266 19.4908Z" fill="#F0A93E"/>
<path d="M6.77988 10.3916C6.62664 10.5467 6.43563 10.6593 6.22559 10.7185V18.2817C6.43563 18.3409 6.62664 18.4535 6.77988 18.6086L13.9031 14.501L6.77988 10.3916Z" fill="#F0A93E"/>
<path d="M21.9265 9.5089C21.9269 9.39783 21.942 9.28729 21.9714 9.18017L15.4511 5.42529C15.2918 5.59426 15.0886 5.71591 14.8642 5.77676L14.8574 13.9489L21.9721 9.84562C21.9416 9.73596 21.9263 9.62268 21.9265 9.5089Z" fill="#F0A93E"/>
<path d="M24.7917 4.13424C22.571 1.85439 19.6388 0.396269 16.4773 -0.000362868H14.1659C12.2907 -0.024326 10.4313 0.34277 8.70658 1.0774C6.98189 1.81204 5.43004 2.89801 4.15046 4.26574C2.21073 6.1951 0.874897 8.64536 0.305525 11.3183C0.101236 12.3451 -0.00190169 13.3893 -0.00241428 14.436C-0.0341913 16.3425 0.316761 18.236 1.02977 20.005C1.74278 21.774 2.80342 23.3828 4.14923 24.7366C5.42835 26.1048 6.98014 27.1911 8.70495 27.9255C10.4298 28.66 12.2895 29.0265 14.1647 29.0015H29.0659V14.4913C29.0993 12.5654 28.7374 10.653 28.0023 8.8718C27.2673 7.09063 26.1746 5.47836 24.7917 4.13424ZM24.448 19.4911C24.4483 19.7429 24.3728 19.9889 24.2313 20.1974C24.0899 20.4059 23.889 20.5673 23.6546 20.6606C23.4202 20.7539 23.1632 20.7749 22.9167 20.7209C22.6702 20.6668 22.4457 20.5402 22.2721 20.3575L15.7506 24.1123C15.8011 24.2996 15.8075 24.496 15.7695 24.6862C15.7314 24.8763 15.6498 25.0552 15.531 25.2087C15.4123 25.3622 15.2596 25.4863 15.0848 25.5713C14.9101 25.6562 14.7181 25.6998 14.5237 25.6985C14.3293 25.6972 14.1378 25.6512 13.9642 25.5639C13.7906 25.4767 13.6396 25.3506 13.5229 25.1955C13.4061 25.0404 13.3269 24.8605 13.2913 24.6699C13.2558 24.4792 13.2648 24.2829 13.3178 24.0964L6.80429 20.3452C6.67025 20.4899 6.50402 20.6012 6.31898 20.6701C6.13393 20.739 5.93526 20.7636 5.73895 20.7419C5.54263 20.7202 5.35417 20.6528 5.18874 20.5452C5.02331 20.4375 4.88554 20.2926 4.78652 20.1221C4.68749 19.9516 4.62998 19.7603 4.61863 19.5636C4.60727 19.3668 4.64238 19.1702 4.72113 18.9895C4.79988 18.8088 4.92006 18.649 5.07201 18.5231C5.22396 18.3972 5.40341 18.3087 5.59593 18.2647V10.7346C5.40383 10.6908 5.2247 10.6027 5.07289 10.4773C4.92109 10.352 4.80083 10.1929 4.72177 10.0128C4.64271 9.83271 4.60704 9.63665 4.61762 9.44034C4.6282 9.24402 4.68474 9.05291 4.7827 8.88233C4.88066 8.71174 5.01732 8.56643 5.18173 8.45804C5.34613 8.34965 5.5337 8.2812 5.7294 8.25818C5.92511 8.23515 6.12349 8.2582 6.30866 8.32546C6.49382 8.39272 6.66062 8.50233 6.79566 8.6455L13.3154 4.89063C13.2644 4.70451 13.257 4.50919 13.2937 4.31976C13.3304 4.13032 13.4103 3.95184 13.5271 3.7981C13.644 3.64436 13.7947 3.51946 13.9676 3.43306C14.1405 3.34666 14.331 3.30107 14.5244 3.2998C14.7178 3.29853 14.9089 3.34163 15.0829 3.42575C15.257 3.50988 15.4093 3.63279 15.5281 3.78499C15.647 3.93719 15.7292 4.11461 15.7684 4.30355C15.8076 4.49248 15.8028 4.68788 15.7542 4.87465L22.2826 8.63383C22.4181 8.49419 22.5842 8.38777 22.7679 8.32293C22.9516 8.25809 23.1479 8.23658 23.3413 8.2601C23.5347 8.28362 23.72 8.35153 23.8827 8.45849C24.0454 8.56546 24.181 8.70857 24.279 8.87661C24.377 9.04465 24.4346 9.23304 24.4473 9.42702C24.46 9.621 24.4275 9.81528 24.3524 9.99462C24.2772 10.174 24.1614 10.3335 24.0141 10.4607C23.8668 10.5879 23.6919 10.6794 23.5032 10.7279V18.2751C23.7731 18.3451 24.0122 18.5023 24.183 18.7222C24.3539 18.9421 24.4468 19.2123 24.4474 19.4905L24.448 19.4911Z" fill="#F0A93E"/>
<path d="M15.1641 14.501L22.2873 18.6098C22.4478 18.4472 22.6496 18.3312 22.8712 18.2743V10.7271C22.6496 10.6702 22.4478 10.5543 22.2873 10.3916L15.1641 14.501Z" fill="#F0A93E"/>
<path d="M14.8569 15.0503L14.8501 23.2224C15.0758 23.2806 15.2809 23.4001 15.4426 23.5677L21.9666 19.8098C21.9093 19.5956 21.9113 19.3699 21.9721 19.1566L14.8569 15.0503Z" fill="#F0A93E"/>
<path d="M37.2315 23.0277C37.5321 23.1899 37.7932 23.416 37.9965 23.6901L38.0396 23.7546C38.0507 23.7796 38.0568 23.8065 38.0574 23.8339C38.0603 23.8617 38.0568 23.8898 38.0472 23.9161C38.0376 23.9424 38.0221 23.9661 38.0019 23.9855C37.9818 24.0049 37.9574 24.0195 37.9307 24.0282C37.9041 24.0368 37.8758 24.0393 37.848 24.0354C37.8173 24.0356 37.787 24.0281 37.7599 24.0136C37.7328 23.9991 37.7097 23.9781 37.6928 23.9525C37.5199 23.7211 37.3013 23.5274 37.0505 23.3835C36.7592 23.2312 36.4338 23.1555 36.1051 23.1635C35.8245 23.1538 35.5452 23.207 35.2879 23.3192C35.0306 23.4314 34.8018 23.5997 34.6183 23.8118C34.2752 24.2331 34.0878 24.7595 34.0878 25.3024C34.0878 25.8453 34.2752 26.3717 34.6183 26.7931C34.8018 27.0051 35.0306 27.1735 35.2879 27.2856C35.5452 27.3978 35.8245 27.451 36.1051 27.4413C36.4338 27.4494 36.7592 27.3737 37.0505 27.2213C37.3013 27.0774 37.5199 26.8838 37.6928 26.6523C37.7097 26.6267 37.7328 26.6057 37.7599 26.5912C37.787 26.5768 37.8173 26.5692 37.848 26.5694C37.8758 26.5655 37.9041 26.568 37.9307 26.5766C37.9574 26.5853 37.9818 26.5999 38.0019 26.6193C38.0221 26.6387 38.0376 26.6625 38.0472 26.6887C38.0568 26.715 38.0603 26.7431 38.0574 26.7709C38.0568 26.7983 38.0507 26.8252 38.0396 26.8502L37.9965 26.9184C37.7803 27.1921 37.5078 27.4164 37.1974 27.5762C36.887 27.7359 36.5458 27.8274 36.197 27.8445C35.8481 27.8615 35.4996 27.8038 35.175 27.6751C34.8505 27.5464 34.5573 27.3498 34.3153 27.0984C33.8824 26.5995 33.644 25.9617 33.644 25.3018C33.644 24.6419 33.8824 24.004 34.3153 23.5051C34.6871 23.1262 35.1704 22.8755 35.6949 22.7894C36.2193 22.7033 36.7576 22.7864 37.2315 23.0265V23.0277Z" fill="#A4A4A4"/>
<path d="M40.6045 23.0106C40.6045 22.9518 40.6279 22.8955 40.6695 22.8539C40.7112 22.8124 40.7676 22.7891 40.8265 22.7891C40.8854 22.7891 40.9419 22.8124 40.9835 22.8539C41.0252 22.8955 41.0485 22.9518 41.0485 23.0106V25.0524H44.0405V23.0106C44.0405 22.9518 44.0639 22.8955 44.1055 22.8539C44.1472 22.8124 44.2036 22.7891 44.2625 22.7891C44.3214 22.7891 44.3779 22.8124 44.4195 22.8539C44.4611 22.8955 44.4845 22.9518 44.4845 23.0106V27.5974C44.4845 27.6562 44.4611 27.7125 44.4195 27.754C44.3779 27.7956 44.3214 27.8189 44.2625 27.8189C44.2036 27.8189 44.1472 27.7956 44.1055 27.754C44.0639 27.7125 44.0405 27.6562 44.0405 27.5974V25.4585H41.0485V27.5974C41.0485 27.6562 41.0252 27.7125 40.9835 27.754C40.9419 27.7956 40.8854 27.8189 40.8265 27.8189C40.7676 27.8189 40.7112 27.7956 40.6695 27.754C40.6279 27.7125 40.6045 27.6562 40.6045 27.5974V23.0106Z" fill="#A4A4A4"/>
<path d="M51.5739 27.5143C51.591 27.5466 51.6008 27.5822 51.6029 27.6187C51.6029 27.7506 51.5306 27.8166 51.3861 27.8166C51.3422 27.8178 51.2991 27.8047 51.2633 27.7794C51.2275 27.754 51.201 27.7176 51.1878 27.6759L50.5817 26.3296H48.0431L47.437 27.6759C47.4233 27.718 47.3961 27.7546 47.3597 27.78C47.3232 27.8054 47.2795 27.8182 47.235 27.8166C47.093 27.8166 47.022 27.7506 47.022 27.6187C47.024 27.5822 47.0339 27.5466 47.0509 27.5143L49.1079 22.9379C49.1222 22.8948 49.1499 22.8573 49.1868 22.8308C49.2238 22.8043 49.2681 22.7902 49.3136 22.7904C49.359 22.7908 49.4031 22.8052 49.4399 22.8316C49.4768 22.858 49.5045 22.8951 49.5194 22.9379L51.5739 27.5143ZM50.4118 25.937L49.3112 23.4092L48.2106 25.937H50.4118ZM50.0798 21.5744C50.1017 21.5716 50.1239 21.5739 50.1447 21.5811C50.1655 21.5883 50.1844 21.6002 50.1998 21.616C50.2152 21.6317 50.2268 21.6508 50.2335 21.6717C50.2403 21.6927 50.242 21.7149 50.2387 21.7366C50.2387 22.2073 49.9295 22.4424 49.3112 22.442C48.6928 22.4416 48.3849 22.2065 48.3874 21.7366C48.384 21.7149 48.3858 21.6927 48.3926 21.6717C48.3993 21.6508 48.4108 21.6317 48.4262 21.616C48.4416 21.6002 48.4605 21.5883 48.4813 21.5811C48.5022 21.5739 48.5244 21.5716 48.5463 21.5744C48.569 21.5715 48.5922 21.5739 48.6139 21.5814C48.6356 21.5889 48.6552 21.6014 48.6713 21.6177C48.6873 21.6341 48.6993 21.654 48.7064 21.6758C48.7135 21.6976 48.7153 21.7207 48.7119 21.7434C48.7119 22.0076 48.9117 22.1397 49.3112 22.1397C49.7107 22.1397 49.9117 22.0076 49.9141 21.7434C49.9105 21.7206 49.9122 21.6974 49.9192 21.6754C49.9261 21.6534 49.9381 21.6334 49.9542 21.6169C49.9703 21.6004 49.99 21.5878 50.0118 21.5802C50.0336 21.5726 50.0569 21.5702 50.0798 21.5732V21.5744ZM49.6068 20.9157C49.6268 20.891 49.6512 20.8702 49.6789 20.8543C49.7113 20.8378 49.7472 20.8292 49.7835 20.8291C49.9067 20.8291 49.9683 20.8854 49.9683 20.9981C49.9676 21.0526 49.947 21.105 49.9104 21.1455L49.5027 21.5812C49.4817 21.6091 49.4552 21.6325 49.4248 21.6498C49.3944 21.6671 49.3608 21.6781 49.326 21.682C49.2028 21.682 49.1412 21.6256 49.1412 21.513C49.1438 21.461 49.1642 21.4115 49.1991 21.3729L49.6068 20.9157Z" fill="#A4A4A4"/>
<path d="M57.4549 25.2093C57.1471 25.4851 56.7422 25.6277 56.3291 25.6057H54.5788V27.5965C54.5788 27.6552 54.5554 27.7116 54.5138 27.7531C54.4721 27.7946 54.4157 27.818 54.3568 27.818C54.2979 27.818 54.2414 27.7946 54.1998 27.7531C54.1581 27.7116 54.1347 27.6552 54.1347 27.5965V23.0668C54.1305 23.0369 54.1333 23.0065 54.1429 22.9779C54.1525 22.9493 54.1686 22.9234 54.19 22.9021C54.2114 22.8808 54.2375 22.8648 54.2661 22.8553C54.2948 22.8458 54.3253 22.8431 54.3552 22.8474H56.3291C56.7422 22.8255 57.1471 22.968 57.4549 23.2437C57.7055 23.5101 57.8449 23.8616 57.8449 24.2268C57.8449 24.5921 57.7055 24.9436 57.4549 25.21V25.2093ZM57.1409 23.5245C57.0463 23.431 56.9333 23.3581 56.8091 23.3104C56.6848 23.2627 56.552 23.2412 56.4191 23.2474H54.5788V25.2063H56.4197C56.5526 25.2125 56.6855 25.191 56.8097 25.1433C56.934 25.0956 57.0469 25.0227 57.1415 24.9292C57.3091 24.7335 57.4013 24.4846 57.4013 24.2272C57.4013 23.9697 57.3091 23.7208 57.1415 23.5251L57.1409 23.5245Z" fill="#A4A4A4"/>
<path d="M67.255 23.0277C67.5556 23.1899 67.8167 23.416 68.0199 23.6901L68.063 23.7546C68.0741 23.7796 68.0802 23.8065 68.0808 23.8339C68.0837 23.8617 68.0802 23.8898 68.0706 23.9161C68.061 23.9424 68.0455 23.9661 68.0254 23.9855C68.0052 24.0049 67.9808 24.0195 67.9542 24.0282C67.9275 24.0368 67.8992 24.0393 67.8715 24.0354C67.8407 24.0356 67.8104 24.0281 67.7833 24.0136C67.7562 23.9991 67.7332 23.9781 67.7163 23.9525C67.5433 23.7211 67.3247 23.5274 67.0739 23.3835C66.7827 23.2312 66.4573 23.1555 66.1285 23.1635C65.8479 23.1538 65.5686 23.207 65.3113 23.3192C65.054 23.4314 64.8253 23.5997 64.6418 23.8118C64.2986 24.2331 64.1113 24.7595 64.1113 25.3024C64.1113 25.8453 64.2986 26.3717 64.6418 26.7931C64.8253 27.0051 65.054 27.1735 65.3113 27.2856C65.5686 27.3978 65.8479 27.451 66.1285 27.4413C66.4573 27.4494 66.7827 27.3737 67.0739 27.2213C67.3247 27.0774 67.5433 26.8838 67.7163 26.6523C67.7332 26.6267 67.7562 26.6057 67.7833 26.5912C67.8104 26.5768 67.8407 26.5692 67.8715 26.5694C67.8992 26.5655 67.9275 26.568 67.9542 26.5766C67.9808 26.5853 68.0052 26.5999 68.0254 26.6193C68.0455 26.6387 68.061 26.6625 68.0706 26.6887C68.0802 26.715 68.0837 26.7431 68.0808 26.7709C68.0802 26.7983 68.0741 26.8252 68.063 26.8502L68.0199 26.9184C67.8037 27.1921 67.5313 27.4164 67.2209 27.5762C66.9104 27.7359 66.5693 27.8274 66.2204 27.8445C65.8716 27.8615 65.5231 27.8038 65.1985 27.6751C64.8739 27.5464 64.5807 27.3498 64.3388 27.0984C63.9058 26.5995 63.6675 25.9617 63.6675 25.3018C63.6675 24.6419 63.9058 24.004 64.3388 23.5051C64.7106 23.1262 65.1938 22.8755 65.7183 22.7894C66.2427 22.7033 66.7811 22.7864 67.255 23.0265V23.0277Z" fill="#A4A4A4"/>
<path d="M74.8347 27.5144C74.8517 27.5468 74.8616 27.5824 74.8636 27.6189C74.8636 27.7508 74.7914 27.8168 74.6468 27.8168C74.6029 27.818 74.5599 27.8049 74.5241 27.7795C74.4883 27.7541 74.4618 27.7178 74.4486 27.676L73.8425 26.3292H71.302L70.6954 27.676C70.6816 27.7182 70.6544 27.7548 70.618 27.7802C70.5815 27.8056 70.5378 27.8184 70.4934 27.8168C70.3513 27.8168 70.2803 27.7508 70.2803 27.6189C70.2823 27.5824 70.2922 27.5468 70.3092 27.5144L72.3662 22.9381C72.3805 22.895 72.4082 22.8575 72.4451 22.831C72.4821 22.8045 72.5265 22.7904 72.572 22.7906C72.6173 22.791 72.6614 22.8054 72.6982 22.8318C72.7351 22.8582 72.7628 22.8953 72.7777 22.9381L74.8347 27.5144ZM73.6725 25.9372L72.572 23.4093L71.4714 25.9372H73.6725ZM72.8319 21.6594C72.8518 21.6346 72.8763 21.6138 72.9039 21.5979C72.9364 21.5815 72.9722 21.5728 73.0086 21.5728C73.1318 21.5728 73.1934 21.6291 73.1934 21.7417C73.1927 21.7963 73.1721 21.8487 73.1355 21.8892L72.7278 22.3248C72.7068 22.3528 72.6802 22.3761 72.6498 22.3934C72.6194 22.4108 72.5858 22.4217 72.551 22.4256C72.4279 22.4256 72.3662 22.3693 72.3662 22.2566C72.3688 22.2047 72.3893 22.1552 72.4241 22.1165L72.8319 21.6594Z" fill="#A4A4A4"/>
<path d="M81.3376 27.6115C81.3376 27.7483 81.2653 27.8167 81.1208 27.8167C81.0871 27.8157 81.0542 27.8068 81.0247 27.7905C80.9952 27.7743 80.9701 27.7512 80.9514 27.7233L77.819 23.6004V27.6115C77.819 27.6674 77.7968 27.721 77.7572 27.7605C77.7176 27.8 77.6638 27.8222 77.6078 27.8222C77.5518 27.8222 77.498 27.8 77.4584 27.7605C77.4188 27.721 77.3965 27.6674 77.3965 27.6115V23.0031C77.3928 22.9737 77.396 22.9437 77.4059 22.9157C77.4158 22.8877 77.4321 22.8624 77.4535 22.8418C77.4749 22.8211 77.5008 22.8058 77.5292 22.7969C77.5576 22.788 77.5877 22.7858 77.617 22.7905C77.6514 22.7906 77.6852 22.7992 77.7154 22.8155C77.7456 22.8318 77.7712 22.8553 77.7901 22.8839L80.9157 27.0136V23.0025C80.9157 22.9466 80.938 22.893 80.9776 22.8535C81.0172 22.8139 81.0709 22.7917 81.1269 22.7917C81.1829 22.7917 81.2367 22.8139 81.2763 22.8535C81.3159 22.893 81.3382 22.9466 81.3382 23.0025L81.3376 27.6115Z" fill="#A4A4A4"/>
<path d="M84.2134 23.0106C84.2134 22.9518 84.2368 22.8955 84.2784 22.8539C84.32 22.8124 84.3765 22.7891 84.4354 22.7891C84.4943 22.7891 84.5508 22.8124 84.5924 22.8539C84.634 22.8955 84.6574 22.9518 84.6574 23.0106V25.0524H87.6494V23.0106C87.6494 22.9518 87.6728 22.8955 87.7144 22.8539C87.756 22.8124 87.8125 22.7891 87.8714 22.7891C87.9303 22.7891 87.9867 22.8124 88.0284 22.8539C88.07 22.8955 88.0934 22.9518 88.0934 23.0106V27.5974C88.0934 27.6562 88.07 27.7125 88.0284 27.754C87.9867 27.7956 87.9303 27.8189 87.8714 27.8189C87.8125 27.8189 87.756 27.7956 87.7144 27.754C87.6728 27.7125 87.6494 27.6562 87.6494 27.5974V25.4585H84.6574V27.5974C84.6574 27.6562 84.634 27.7125 84.5924 27.754C84.5508 27.7956 84.4943 27.8189 84.4354 27.8189C84.3765 27.8189 84.32 27.7956 84.2784 27.754C84.2368 27.7125 84.2134 27.6562 84.2134 27.5974V23.0106Z" fill="#A4A4A4"/>
<path d="M97.9743 22.8484C98.014 22.8104 98.0671 22.7896 98.1221 22.7906C98.2666 22.7906 98.3389 22.8543 98.3389 22.9817C98.3397 23.012 98.334 23.0422 98.3222 23.0701C98.3104 23.0981 98.2929 23.1232 98.2706 23.1439L96.6465 24.7353L98.4042 27.4862C98.4311 27.5259 98.4472 27.5718 98.451 27.6195C98.451 27.7514 98.3787 27.8174 98.2342 27.8174C98.1972 27.8186 98.1605 27.8099 98.128 27.7922C98.0955 27.7745 98.0684 27.7484 98.0495 27.7166L96.3354 25.0302L95.1154 26.2253V27.5974C95.1154 27.6562 95.092 27.7125 95.0504 27.754C95.0087 27.7956 94.9523 27.8189 94.8934 27.8189C94.8345 27.8189 94.7781 27.7956 94.7364 27.754C94.6948 27.7125 94.6714 27.6562 94.6714 27.5974V23.0106C94.6714 22.9518 94.6948 22.8955 94.7364 22.8539C94.7781 22.8124 94.8345 22.7891 94.8934 22.7891C94.9523 22.7891 95.0087 22.8124 95.0504 22.8539C95.092 22.8955 95.1154 22.9518 95.1154 23.0106V25.657L97.9743 22.8484Z" fill="#A4A4A4"/>
<path d="M101.034 23.0106C101.034 22.9518 101.057 22.8955 101.099 22.8539C101.14 22.8124 101.197 22.7891 101.256 22.7891C101.315 22.7891 101.371 22.8124 101.413 22.8539C101.454 22.8955 101.478 22.9518 101.478 23.0106V25.0524H104.47V23.0106C104.47 22.9518 104.493 22.8955 104.535 22.8539C104.576 22.8124 104.633 22.7891 104.692 22.7891C104.751 22.7891 104.807 22.8124 104.849 22.8539C104.89 22.8955 104.914 22.9518 104.914 23.0106V27.5974C104.914 27.6562 104.89 27.7125 104.849 27.754C104.807 27.7956 104.751 27.8189 104.692 27.8189C104.633 27.8189 104.576 27.7956 104.535 27.754C104.493 27.7125 104.47 27.6562 104.47 27.5974V25.4585H101.478V27.5974C101.478 27.6562 101.454 27.7125 101.413 27.754C101.371 27.7956 101.315 27.8189 101.256 27.8189C101.197 27.8189 101.14 27.7956 101.099 27.754C101.057 27.7125 101.034 27.6562 101.034 27.5974V23.0106Z" fill="#A4A4A4"/>
<path d="M112.104 23.9959C112.327 24.3951 112.44 24.8459 112.432 25.3028C112.448 25.9644 112.203 26.6059 111.75 27.089C111.524 27.3365 111.248 27.5324 110.94 27.6635C110.632 27.7946 110.299 27.8577 109.964 27.8484C109.627 27.8575 109.292 27.7944 108.982 27.6634C108.672 27.5324 108.394 27.3365 108.166 27.089C107.723 26.5995 107.477 25.9631 107.477 25.3031C107.477 24.6431 107.723 24.0067 108.166 23.5172C108.394 23.2697 108.672 23.0738 108.982 22.9428C109.292 22.8118 109.627 22.7487 109.964 22.7578C110.299 22.7485 110.632 22.8116 110.94 22.9427C111.248 23.0738 111.524 23.2698 111.75 23.5172C111.798 23.5676 111.843 23.6204 111.887 23.6757C111.936 23.5675 111.973 23.4538 111.995 23.3372C112.017 23.2039 112.026 23.069 112.024 22.9341V22.6926C112.024 22.58 112.094 22.5237 112.234 22.5237C112.373 22.5237 112.442 22.58 112.439 22.6926V22.9341C112.441 23.2528 112.37 23.5677 112.234 23.8558L112.201 23.9135L112.162 23.9639C112.145 23.9782 112.125 23.9891 112.104 23.9959ZM111.45 23.8048C111.268 23.5914 111.039 23.4217 110.782 23.3083C110.524 23.1949 110.245 23.1408 109.964 23.1498C109.681 23.1409 109.4 23.1951 109.14 23.3084C108.881 23.4217 108.651 23.5913 108.466 23.8048C108.114 24.2256 107.921 24.7563 107.921 25.3043C107.921 25.8524 108.114 26.3831 108.466 26.8039C108.651 27.0166 108.882 27.1854 109.141 27.2982C109.4 27.4109 109.681 27.4648 109.964 27.4558C110.245 27.4649 110.524 27.4111 110.781 27.2982C111.038 27.1854 111.267 27.0165 111.45 26.8039C111.798 26.3811 111.988 25.8512 111.988 25.3043C111.988 24.7575 111.798 24.2276 111.45 23.8048ZM110.313 21.9651C110.232 22.0299 110.159 22.1049 110.097 22.1882C110.074 22.2313 110.063 22.2795 110.064 22.3283V22.4542C110.064 22.5431 110.004 22.5876 109.884 22.5876C109.763 22.5876 109.706 22.5431 109.711 22.4542V22.3313C109.712 22.2359 109.739 22.1426 109.79 22.0616C109.82 22.0178 109.855 21.978 109.895 21.943C109.907 21.9311 109.945 21.8963 110.01 21.8386C110.181 21.6899 110.267 21.5614 110.267 21.4533C110.267 21.2948 110.164 21.2155 109.959 21.2155C109.82 21.2173 109.685 21.2584 109.569 21.3341C109.552 21.3452 109.534 21.3549 109.515 21.363C109.495 21.3682 109.474 21.3707 109.453 21.3703C109.342 21.3703 109.287 21.3271 109.287 21.2407C109.287 21.2022 109.316 21.1639 109.374 21.1258C109.55 21.0075 109.758 20.9459 109.97 20.9495C110.133 20.94 110.294 20.9857 110.428 21.0791C110.488 21.1213 110.537 21.1774 110.571 21.2425C110.605 21.3076 110.623 21.3799 110.623 21.4533C110.611 21.5559 110.578 21.6549 110.525 21.7433C110.472 21.8318 110.4 21.9077 110.314 21.9657L110.313 21.9651Z" fill="#A4A4A4"/>
<path d="M115.473 27.5974C115.473 27.6562 115.45 27.7125 115.408 27.754C115.367 27.7956 115.31 27.8189 115.251 27.8189C115.192 27.8189 115.136 27.7956 115.094 27.754C115.053 27.7125 115.029 27.6562 115.029 27.5974V23.0106C115.029 22.9518 115.053 22.8955 115.094 22.8539C115.136 22.8124 115.192 22.7891 115.251 22.7891C115.31 22.7891 115.367 22.8124 115.408 22.8539C115.45 22.8955 115.473 22.9518 115.473 23.0106V27.5974Z" fill="#A4A4A4"/>
<path d="M126.027 27.6115C126.027 27.7483 125.955 27.8167 125.81 27.8167C125.777 27.8158 125.744 27.8068 125.714 27.7906C125.685 27.7743 125.659 27.7512 125.641 27.7233L122.509 23.6004V27.6115C122.509 27.6674 122.486 27.721 122.447 27.7605C122.407 27.8 122.353 27.8222 122.297 27.8222C122.241 27.8222 122.187 27.8 122.148 27.7605C122.108 27.721 122.086 27.6674 122.086 27.6115V23.0031C122.082 22.9737 122.085 22.9437 122.095 22.9157C122.105 22.8877 122.122 22.8624 122.143 22.8418C122.164 22.8211 122.19 22.8058 122.219 22.7969C122.247 22.788 122.277 22.7858 122.306 22.7905C122.341 22.7906 122.375 22.7992 122.405 22.8155C122.435 22.8318 122.461 22.8553 122.48 22.8839L125.605 27.0136V23.0025C125.605 22.9466 125.627 22.893 125.666 22.8535C125.706 22.8139 125.76 22.7917 125.816 22.7917C125.872 22.7917 125.925 22.8139 125.965 22.8535C126.005 22.893 126.027 22.9466 126.027 23.0025V27.6115Z" fill="#A4A4A4"/>
<path d="M133.146 26.8517C133.148 26.9132 133.127 26.9732 133.088 27.0207C132.862 27.2717 132.584 27.4707 132.273 27.6038C131.901 27.7685 131.499 27.8523 131.093 27.8496C130.72 27.8551 130.351 27.7803 130.01 27.6302C129.714 27.4953 129.452 27.2973 129.241 27.0502C128.83 26.5625 128.613 25.9409 128.632 25.3039C128.621 24.9722 128.677 24.6417 128.795 24.3315C128.914 24.0212 129.092 23.7374 129.321 23.4962C129.547 23.2551 129.822 23.0646 130.127 22.9375C130.433 22.8103 130.762 22.7495 131.093 22.7589C131.409 22.7471 131.723 22.8022 132.016 22.9208C132.309 23.0393 132.574 23.2184 132.792 23.4465C132.829 23.4899 132.849 23.5446 132.85 23.6013C132.85 23.7287 132.784 23.7924 132.652 23.7924C132.624 23.7938 132.595 23.7894 132.568 23.7795C132.542 23.7695 132.517 23.7543 132.497 23.7346C132.312 23.5513 132.093 23.4066 131.852 23.3089C131.611 23.2112 131.353 23.1625 131.093 23.1656C130.817 23.158 130.543 23.2107 130.29 23.3202C130.036 23.4296 129.81 23.5931 129.627 23.7991C129.257 24.2117 129.058 24.7501 129.073 25.3039C129.053 25.8547 129.235 26.3938 129.586 26.8198C129.773 27.0363 130.007 27.2075 130.27 27.3204C130.533 27.4333 130.819 27.4851 131.105 27.4717C131.402 27.482 131.699 27.4317 131.976 27.324C132.253 27.2162 132.506 27.0532 132.718 26.845V25.7525H131.301C131.252 25.7497 131.206 25.7282 131.172 25.6924C131.138 25.6565 131.119 25.6091 131.119 25.5598C131.119 25.5106 131.138 25.4631 131.172 25.4273C131.206 25.3915 131.252 25.37 131.301 25.3672H132.929C132.958 25.3624 132.987 25.3645 133.015 25.3733C133.043 25.382 133.068 25.3972 133.089 25.4176C133.11 25.4379 133.125 25.4629 133.135 25.4905C133.144 25.518 133.147 25.5474 133.142 25.5761L133.146 26.8517Z" fill="#A4A4A4"/>
<path d="M135.787 23.0106C135.787 22.9518 135.81 22.8955 135.852 22.8539C135.893 22.8124 135.95 22.7891 136.009 22.7891C136.068 22.7891 136.124 22.8124 136.166 22.8539C136.207 22.8955 136.231 22.9518 136.231 23.0106V25.0524H139.223V23.0106C139.223 22.9518 139.246 22.8955 139.288 22.8539C139.329 22.8124 139.386 22.7891 139.445 22.7891C139.504 22.7891 139.56 22.8124 139.602 22.8539C139.643 22.8955 139.667 22.9518 139.667 23.0106V27.5974C139.667 27.6562 139.643 27.7125 139.602 27.754C139.56 27.7956 139.504 27.8189 139.445 27.8189C139.386 27.8189 139.329 27.7956 139.288 27.754C139.246 27.7125 139.223 27.6562 139.223 27.5974V25.4585H136.231V27.5974C136.231 27.6562 136.207 27.7125 136.166 27.754C136.124 27.7956 136.068 27.8189 136.009 27.8189C135.95 27.8189 135.893 27.7956 135.852 27.754C135.81 27.7125 135.787 27.6562 135.787 27.5974V23.0106Z" fill="#A4A4A4"/>
<path d="M143.029 27.5974C143.029 27.6562 143.005 27.7125 142.964 27.754C142.922 27.7956 142.865 27.8189 142.807 27.8189C142.748 27.8189 142.691 27.7956 142.65 27.754C142.608 27.7125 142.584 27.6562 142.584 27.5974V23.0106C142.584 22.9518 142.608 22.8955 142.65 22.8539C142.691 22.8124 142.748 22.7891 142.807 22.7891C142.865 22.7891 142.922 22.8124 142.964 22.8539C143.005 22.8955 143.029 22.9518 143.029 23.0106V27.5974Z" fill="#A4A4A4"/>
<path d="M146.391 27.3593H149.022C149.075 27.3593 149.126 27.3803 149.163 27.4178C149.201 27.4552 149.222 27.506 149.222 27.559C149.222 27.6119 149.201 27.6628 149.163 27.7002C149.126 27.7377 149.075 27.7587 149.022 27.7587H146.167C146.137 27.7629 146.107 27.7601 146.078 27.7506C146.05 27.741 146.024 27.725 146.002 27.7037C145.981 27.6824 145.965 27.6565 145.955 27.628C145.946 27.5995 145.943 27.5691 145.947 27.5393V23.0674C145.943 23.0376 145.946 23.0072 145.955 22.9787C145.965 22.9502 145.981 22.9243 146.002 22.903C146.024 22.8817 146.05 22.8657 146.078 22.8562C146.107 22.8466 146.137 22.8438 146.167 22.848H149.014C149.067 22.848 149.118 22.8691 149.156 22.9065C149.193 22.944 149.214 22.9948 149.214 23.0477C149.214 23.1007 149.193 23.1515 149.156 23.1889C149.118 23.2264 149.067 23.2474 149.014 23.2474H146.391V25.0226H147.914C147.967 25.0226 148.018 25.0436 148.056 25.0811C148.093 25.1186 148.114 25.1695 148.114 25.2226C148.114 25.2756 148.093 25.3265 148.056 25.364C148.018 25.4015 147.967 25.4226 147.914 25.4226H146.391V27.3593ZM148.408 22.1365C148.427 22.1534 148.442 22.1729 148.455 22.1943C148.467 22.2202 148.474 22.2486 148.473 22.2772C148.473 22.3755 148.417 22.4247 148.304 22.4247C148.261 22.4239 148.221 22.4087 148.188 22.3817L147.597 21.9602L147.005 22.3817C146.971 22.4096 146.929 22.4249 146.885 22.4247C146.772 22.4247 146.716 22.3755 146.716 22.2772C146.715 22.2486 146.721 22.2202 146.734 22.1943C146.748 22.174 146.764 22.1547 146.781 22.1365L147.458 21.629C147.495 21.592 147.546 21.5713 147.599 21.5713C147.651 21.5713 147.702 21.592 147.739 21.629L148.408 22.1365ZM147.64 28.0665C147.698 28.0665 147.756 28.0839 147.804 28.1163C147.853 28.1488 147.891 28.195 147.913 28.249C147.936 28.303 147.942 28.3624 147.93 28.4197C147.919 28.4771 147.891 28.5297 147.849 28.5711C147.808 28.6124 147.755 28.6405 147.697 28.6519C147.64 28.6634 147.58 28.6575 147.526 28.6351C147.472 28.6128 147.426 28.5749 147.393 28.5263C147.361 28.4777 147.343 28.4205 147.343 28.3621C147.338 28.3224 147.342 28.2819 147.355 28.244C147.368 28.206 147.389 28.1715 147.417 28.1431C147.446 28.1147 147.48 28.0932 147.518 28.0802C147.556 28.0672 147.597 28.0632 147.637 28.0684L147.64 28.0665Z" fill="#A4A4A4"/>
<path d="M155.051 25.2093C154.743 25.485 154.338 25.6276 153.925 25.6057H152.174V27.5965C152.174 27.6552 152.151 27.7115 152.109 27.7531C152.068 27.7946 152.011 27.818 151.952 27.818C151.894 27.818 151.837 27.7946 151.795 27.7531C151.754 27.7115 151.73 27.6552 151.73 27.5965V23.0668C151.726 23.037 151.729 23.0066 151.739 22.9781C151.748 22.9496 151.764 22.9237 151.786 22.9024C151.807 22.8811 151.833 22.8651 151.861 22.8555C151.89 22.846 151.92 22.8432 151.95 22.8474H153.924C154.337 22.8256 154.742 22.9681 155.05 23.2437C155.301 23.51 155.44 23.8616 155.44 24.2268C155.44 24.5921 155.301 24.9436 155.05 25.2099L155.051 25.2093ZM154.737 23.5245C154.642 23.431 154.529 23.3581 154.405 23.3104C154.281 23.2627 154.148 23.2413 154.015 23.2474H152.174V25.2063H154.015C154.148 25.2124 154.281 25.191 154.405 25.1433C154.529 25.0956 154.642 25.0227 154.737 24.9291C154.904 24.7334 154.996 24.4845 154.996 24.2271C154.996 23.9698 154.904 23.7208 154.737 23.5251V23.5245Z" fill="#A4A4A4"/>
<path d="M95.8096 5.9854H97.6258C97.9186 5.98093 98.2113 5.99509 98.5023 6.0278C98.6722 6.04037 98.8325 6.11114 98.9561 6.22811C99.0685 6.36925 99.1317 6.54314 99.136 6.72335C99.1569 6.94824 99.1674 7.25731 99.1674 7.65055C99.1644 7.81705 99.1956 7.98239 99.2592 8.13637C99.3228 8.29034 99.4173 8.42969 99.5369 8.5458C99.65 8.66372 99.7861 8.75727 99.9369 8.82068C100.088 8.88409 100.25 8.91601 100.413 8.91447C100.604 8.92919 100.795 8.89535 100.968 8.81613C101.142 8.73691 101.293 8.61491 101.406 8.46162C101.618 8.15671 101.716 7.78668 101.681 7.41706C101.694 6.77909 101.627 6.142 101.48 5.52088C101.373 5.06404 101.143 4.64504 100.815 4.3092C100.466 3.9864 100.035 3.76427 99.5689 3.66649C98.9309 3.5279 98.2787 3.46418 97.6258 3.47662H95.8096C95.6442 3.47308 95.4799 3.50404 95.3272 3.56752C95.1745 3.63101 95.0367 3.72562 94.9228 3.84529C94.8059 3.96294 94.7139 4.10281 94.6522 4.25659C94.5905 4.41037 94.5605 4.57494 94.5637 4.74054C94.5618 4.90284 94.5926 5.06387 94.6543 5.21407C94.716 5.36427 94.8073 5.50058 94.9228 5.61489C95.0365 5.73496 95.1741 5.82995 95.3269 5.89376C95.4796 5.95758 95.6441 5.98879 95.8096 5.9854Z" fill="#F0A93E"/>
<path d="M100.21 10.0419C99.614 9.76504 98.967 9.61401 98.3096 9.59826C97.5705 9.56303 96.7364 9.54542 95.8073 9.54542C95.2234 9.54482 94.6405 9.49549 94.0649 9.39796C93.7164 9.3466 93.3841 9.21697 93.0931 9.01884C92.8852 8.86577 92.7361 8.64634 92.6706 8.39702C92.602 8.10366 92.5701 7.80296 92.5757 7.50178C92.5772 7.33859 92.5452 7.17683 92.4816 7.02646C92.4181 6.87609 92.3243 6.74029 92.2062 6.62742C92.0898 6.50814 91.9501 6.4139 91.7958 6.3505C91.6414 6.28709 91.4758 6.25587 91.3089 6.25875C91.1295 6.24563 90.9496 6.2773 90.7855 6.35089C90.6214 6.42447 90.4783 6.53767 90.3691 6.68026C90.1598 6.97543 90.0517 7.3302 90.0611 7.69164C90.0573 8.27727 90.0927 8.8625 90.167 9.44342C90.2314 9.95241 90.4571 10.4276 90.8112 10.7995C91.2837 11.2453 91.8669 11.5571 92.5006 11.7027C93.5547 11.9562 94.637 12.0741 95.721 12.0536C96.1012 12.0536 96.506 12.0501 96.9355 12.0431C97.3336 12.0329 97.7312 12.0755 98.118 12.1697C98.4628 12.2528 98.7751 12.4361 99.0154 12.6963C99.2803 13.0341 99.4084 13.4589 99.3744 13.8865C99.3809 14.1849 99.3452 14.4828 99.2685 14.7713C99.231 14.8928 99.1696 15.0057 99.088 15.1034C99.0064 15.2011 98.9061 15.2816 98.793 15.3403C98.4495 15.5084 98.0766 15.6086 97.6949 15.6352C97.0388 15.6993 96.3797 15.7274 95.7204 15.7194H94.0938C93.7699 15.7194 93.5059 15.7089 93.3018 15.688C93.1269 15.6788 92.9599 15.6121 92.827 15.4982C92.6998 15.3624 92.6218 15.1881 92.6053 15.0029C92.5645 14.6886 92.5468 14.3717 92.5523 14.0548C92.553 13.8887 92.5207 13.724 92.4572 13.5704C92.3938 13.4168 92.3005 13.2772 92.1827 13.1597C92.0649 13.0422 91.9251 12.9491 91.7711 12.8858C91.6171 12.8225 91.452 12.7903 91.2855 12.7909C91.1201 12.7874 90.9557 12.8183 90.803 12.8818C90.6503 12.9453 90.5125 13.0399 90.3986 13.1596C90.2817 13.2772 90.1897 13.4171 90.1281 13.5709C90.0664 13.7247 90.0363 13.8892 90.0395 14.0548C90.0278 14.7195 90.0879 15.3834 90.2188 16.0352C90.3101 16.5128 90.529 16.9569 90.8525 17.3206C91.1902 17.6642 91.6186 17.9054 92.0879 18.0162C92.745 18.1719 93.4194 18.2428 94.0945 18.2269H95.721C96.7348 18.2269 97.6254 18.2024 98.3927 18.1532C99.0568 18.1303 99.7081 17.9645 100.302 17.6672C100.821 17.3792 101.227 16.9244 101.453 16.3768C101.984 14.7343 101.973 12.9649 101.421 11.3292C101.179 10.773 100.751 10.318 100.21 10.0419Z" fill="#F0A93E"/>
<path d="M116.077 3.47804H104.272C104.108 3.47653 103.946 3.50847 103.796 3.57188C103.645 3.63528 103.509 3.72881 103.396 3.84671C103.276 3.96284 103.181 4.10219 103.118 4.25616C103.054 4.41013 103.023 4.57546 103.026 4.74195C103.03 5.07034 103.163 5.38411 103.396 5.61633C103.628 5.84855 103.943 5.98084 104.272 5.98498H108.918V16.9627C108.918 17.1288 108.95 17.2935 109.013 17.4471C109.077 17.6008 109.17 17.7403 109.288 17.8578C109.406 17.9753 109.545 18.0684 109.699 18.1317C109.853 18.195 110.019 18.2272 110.185 18.2266C110.35 18.2301 110.515 18.1992 110.668 18.1357C110.82 18.0722 110.958 17.9776 111.072 17.8579C111.189 17.7403 111.281 17.6004 111.342 17.4466C111.404 17.2928 111.434 17.1283 111.431 16.9627V5.98559H116.077C116.243 5.98862 116.407 5.95869 116.561 5.89755C116.714 5.83642 116.854 5.7453 116.972 5.62955C117.09 5.5138 117.184 5.37573 117.248 5.22343C117.312 5.07112 117.344 4.90765 117.344 4.74257C117.347 4.57697 117.317 4.41241 117.255 4.25864C117.194 4.10486 117.102 3.965 116.985 3.84732C116.868 3.72615 116.726 3.63072 116.57 3.56713C116.414 3.50354 116.246 3.4732 116.077 3.47804Z" fill="#F0A93E"/>
<path d="M157.168 4.35299C157.118 4.19349 157.038 4.04528 156.931 3.91693C156.824 3.78857 156.693 3.68263 156.545 3.60521C156.241 3.45805 155.892 3.43573 155.572 3.54306C155.252 3.6504 154.987 3.8788 154.834 4.17911C153.989 5.87539 153.148 7.55221 152.309 9.20957C151.47 10.8669 150.622 12.5384 149.764 14.2241L147.906 10.5159L145.627 5.98619H149.893C150.058 5.9874 150.221 5.95609 150.373 5.89407C150.525 5.83206 150.664 5.74057 150.78 5.6249C150.902 5.51468 150.998 5.38005 151.064 5.22988C151.129 5.0797 151.162 4.91738 151.16 4.75361C151.158 4.41796 151.025 4.09643 150.788 3.85806C150.551 3.61968 150.23 3.48346 149.893 3.47864H143.642C143.417 3.47495 143.196 3.52935 142.998 3.63655C142.814 3.73673 142.657 3.88171 142.544 4.05806C142.431 4.23573 142.362 4.43806 142.343 4.64793C142.323 4.87108 142.371 5.0951 142.481 5.29064L145.458 11.2114L148.668 17.5322C148.764 17.7521 148.926 17.9364 149.133 18.0588C149.325 18.17 149.544 18.2281 149.767 18.2272C149.992 18.2272 150.214 18.1692 150.411 18.0588C150.625 17.9363 150.798 17.753 150.907 17.5322C151.934 15.4816 152.961 13.4415 153.99 11.4117C155.019 9.38203 156.054 7.34186 157.095 5.29125C157.171 5.14829 157.217 4.99115 157.229 4.8297C157.242 4.66824 157.221 4.50595 157.168 4.35299Z" fill="#F0A93E"/>
<path d="M127.637 4.00466C127.534 3.83655 127.387 3.69907 127.213 3.60648C127.038 3.5139 126.842 3.46956 126.645 3.47808C126.447 3.475 126.252 3.51837 126.074 3.60466C125.911 3.68516 125.765 3.79588 125.643 3.93093C125.522 4.06681 125.436 4.22939 125.39 4.40528C125.341 4.59132 125.337 4.78653 125.38 4.97426V16.8533C125.38 16.8902 125.375 16.9271 125.375 16.9652C125.371 17.1308 125.401 17.2954 125.463 17.4492C125.525 17.603 125.617 17.7428 125.734 17.8604C125.844 17.9787 125.978 18.0726 126.128 18.1361C126.277 18.1996 126.437 18.2313 126.6 18.2291H129.002C129.168 18.2297 129.333 18.1975 129.487 18.1342C129.641 18.0709 129.781 17.9778 129.899 17.8603C130.017 17.7428 130.11 17.6033 130.173 17.4496C130.237 17.296 130.269 17.1313 130.268 16.9652C130.27 16.802 130.238 16.6402 130.174 16.4899C130.111 16.3395 130.017 16.2037 129.899 16.0908C129.782 15.9716 129.643 15.8773 129.488 15.8139C129.334 15.7505 129.168 15.7193 129.002 15.7221H127.893V7.77613L134.397 14.2653C134.56 14.4492 134.779 14.575 135.02 14.6235C135.204 14.6534 135.392 14.6389 135.569 14.5811C135.715 14.5329 135.854 14.4656 135.981 14.3808C136.044 14.329 136.115 14.2896 136.193 14.2647C136.423 14.0274 136.552 13.7101 136.552 13.3799C136.552 13.0496 136.423 12.7323 136.193 12.4951L127.637 4.00466Z" fill="#F0A93E"/>
<path d="M122.881 4.55273C122.846 4.28598 122.725 4.03785 122.536 3.84673C122.418 3.72563 122.277 3.63028 122.12 3.5668C121.964 3.50332 121.796 3.4731 121.627 3.47807C121.573 3.47835 121.519 3.48205 121.465 3.48913H119.223C119.061 3.48706 118.9 3.51879 118.751 3.58227C118.602 3.64576 118.468 3.7396 118.357 3.85779C118.241 3.97213 118.15 4.10844 118.088 4.25863C118.027 4.40883 117.996 4.56985 117.998 4.73215C117.994 4.89776 118.025 5.06235 118.086 5.21614C118.148 5.36993 118.24 5.50978 118.357 5.6274C118.467 5.74568 118.602 5.83959 118.751 5.90308C118.9 5.96657 119.061 5.99824 119.223 5.99606H120.381V16.9627C120.378 17.1292 120.409 17.2945 120.473 17.4485C120.537 17.6025 120.631 17.7419 120.751 17.8579C120.864 17.9759 121 18.0695 121.151 18.1329C121.301 18.1963 121.464 18.2282 121.627 18.2266C121.796 18.2317 121.964 18.2015 122.12 18.138C122.277 18.0745 122.418 17.9791 122.536 17.8579C122.653 17.7403 122.744 17.6004 122.806 17.4466C122.868 17.2929 122.898 17.1283 122.895 16.9627V4.74198C122.895 4.74198 122.895 4.73891 122.895 4.73707C122.895 4.73522 122.895 4.73399 122.895 4.73215C122.894 4.67209 122.889 4.61214 122.881 4.55273Z" fill="#F0A93E"/>
<path d="M139.726 4.3702C139.643 4.1152 139.483 3.89228 139.267 3.73239C139.051 3.57251 138.791 3.4836 138.523 3.47803C138.468 3.47831 138.414 3.482 138.361 3.48909H136.109C135.947 3.48699 135.786 3.5187 135.637 3.58218C135.488 3.64567 135.354 3.73953 135.243 3.85775C135.128 3.97209 135.036 4.1084 134.975 4.2586C134.913 4.40879 134.882 4.56981 134.884 4.73211C134.881 4.89772 134.911 5.06231 134.972 5.2161C135.034 5.36989 135.126 5.50975 135.243 5.62736C135.354 5.74568 135.488 5.8396 135.637 5.90309C135.786 5.96658 135.947 5.99824 136.109 5.99603H137.267V16.9627C137.267 17.2952 137.4 17.6141 137.636 17.8492C137.871 18.0843 138.191 18.2164 138.524 18.2164C138.857 18.2164 139.177 18.0843 139.413 17.8492C139.649 17.6141 139.781 17.2952 139.781 16.9627V4.74194C139.781 4.74194 139.781 4.73887 139.781 4.73703C139.781 4.73518 139.781 4.73395 139.781 4.73211C139.781 4.60942 139.762 4.48743 139.726 4.3702Z" fill="#F0A93E"/>
<path d="M58.3199 16.79V14.6253C58.3205 14.4591 58.2882 14.2945 58.2248 14.1408C58.1613 13.9872 58.068 13.8476 57.9502 13.7301C57.8325 13.6126 57.6925 13.5195 57.5385 13.4563C57.3845 13.393 57.2195 13.3607 57.053 13.3614C56.8894 13.3599 56.7273 13.3919 56.5766 13.4553C56.4258 13.5187 56.2897 13.6122 56.1766 13.73C56.057 13.8462 55.9626 13.9856 55.899 14.1395C55.8355 14.2935 55.8042 14.4588 55.8071 14.6253V15.719H52.525C52.3629 15.7169 52.2022 15.7486 52.0531 15.8121C51.904 15.8756 51.7698 15.9694 51.6591 16.0877C51.5436 16.202 51.4523 16.3383 51.3907 16.4885C51.329 16.6387 51.2982 16.7997 51.3001 16.962C51.2967 17.1276 51.3267 17.2922 51.3884 17.446C51.4501 17.5998 51.5422 17.7397 51.6591 17.8573C51.7697 17.9756 51.9039 18.0695 52.053 18.1329C52.2021 18.1964 52.3629 18.2281 52.525 18.2259H56.8245C56.8997 18.2393 56.9759 18.2461 57.0523 18.2462C57.2183 18.2495 57.3833 18.2195 57.5375 18.158C57.6916 18.0964 57.8318 18.0046 57.9497 17.888C58.1073 17.7395 58.2206 17.5505 58.2773 17.3418C58.3311 17.1626 58.3454 16.9739 58.3192 16.7887L58.3199 16.79Z" fill="#575755"/>
<path d="M87.0581 11.3303C86.8159 10.7724 86.3865 10.3161 85.8436 10.0399C85.2475 9.76307 84.6004 9.61204 83.943 9.59631C83.204 9.56108 82.3699 9.54347 81.4407 9.54347C80.8568 9.54287 80.274 9.49354 79.6984 9.396C79.3499 9.34462 79.0176 9.215 78.7266 9.01689C78.5187 8.86385 78.3695 8.64441 78.304 8.39507C78.2354 8.10171 78.2036 7.801 78.2092 7.49982C78.2107 7.33663 78.1787 7.17487 78.1151 7.0245C78.0516 6.87413 77.9578 6.73833 77.8397 6.62546C77.7232 6.50619 77.5836 6.41195 77.4292 6.34854C77.2749 6.28514 77.1092 6.25392 76.9423 6.2568C76.7629 6.24368 76.583 6.27534 76.419 6.34893C76.2549 6.42252 76.1118 6.53572 76.0025 6.67831C75.7933 6.97349 75.6852 7.32825 75.6946 7.68969C75.6908 8.27531 75.7262 8.86054 75.8005 9.44147C75.8649 9.95043 76.0906 10.4255 76.4447 10.7976C76.9172 11.2433 77.5004 11.5552 78.1341 11.7008C79.1881 11.9543 80.2704 12.0722 81.3545 12.0516C81.7347 12.0516 82.1395 12.0482 82.569 12.0412C82.967 12.031 83.3647 12.0735 83.7515 12.1678C84.0962 12.2509 84.4085 12.4341 84.6488 12.6943C84.9137 13.0322 85.0418 13.4569 85.0079 13.8845C85.0145 14.1829 84.9791 14.4808 84.9026 14.7693C84.865 14.8909 84.8037 15.0037 84.7221 15.1014C84.6405 15.1991 84.5402 15.2796 84.4271 15.3383C84.0836 15.5065 83.7107 15.6066 83.329 15.6332C82.6729 15.6974 82.0137 15.7255 81.3545 15.7174H79.7286C79.4046 15.7174 79.1406 15.707 78.9366 15.6861C78.7616 15.6769 78.5946 15.6101 78.4617 15.4962C78.3345 15.3605 78.2564 15.1861 78.24 15.001C78.1992 14.6867 78.1815 14.3698 78.187 14.0529C78.1877 13.8867 78.1554 13.7221 78.0919 13.5684C78.0285 13.4148 77.9352 13.2752 77.8174 13.1577C77.6997 13.0402 77.5597 12.9471 77.4057 12.8839C77.2517 12.8206 77.0867 12.7883 76.9202 12.789C76.7547 12.7854 76.5904 12.8164 76.4377 12.8799C76.285 12.9434 76.1472 13.038 76.0333 13.1576C75.9164 13.2753 75.8244 13.4151 75.7627 13.5689C75.701 13.7227 75.671 13.8873 75.6743 14.0529C75.6626 14.7175 75.7229 15.3815 75.8541 16.0332C75.9453 16.5109 76.1643 16.955 76.4878 17.3187C76.8255 17.6623 77.2539 17.9034 77.7233 18.0142C78.3803 18.17 79.0547 18.2408 79.7298 18.225H81.3557C82.3695 18.225 83.26 18.2004 84.0274 18.1512C84.6915 18.1284 85.3428 17.9626 85.9366 17.6652C86.4555 17.3773 86.8613 16.9224 87.0877 16.3749C87.3823 15.5902 87.5151 14.7542 87.4782 13.9171C87.5221 13.0349 87.379 12.1535 87.0581 11.3303Z" fill="#575755"/>
<path d="M81.4405 5.98541H83.2567C83.5495 5.98095 83.8422 5.99511 84.1331 6.0278C84.303 6.04038 84.4634 6.11114 84.587 6.22811C84.6994 6.36925 84.7626 6.54314 84.7669 6.72336C84.7882 6.94824 84.7987 7.25731 84.7983 7.65055C84.7952 7.81706 84.8265 7.98241 84.89 8.13639C84.9536 8.29037 85.0481 8.42971 85.1678 8.5458C85.2809 8.66376 85.4169 8.75733 85.5677 8.82074C85.7184 8.88415 85.8806 8.91605 86.0442 8.91447C86.2346 8.92919 86.4256 8.89535 86.5993 8.81613C86.773 8.73691 86.9236 8.61491 87.037 8.46162C87.2493 8.15671 87.3466 7.78668 87.3116 7.41706C87.3249 6.7791 87.2575 6.14201 87.1109 5.52089C87.004 5.06405 86.774 4.64506 86.4457 4.3092C86.0964 3.9864 85.6658 3.76427 85.1998 3.66649C84.5617 3.5279 83.9096 3.46418 83.2567 3.47662H81.4405C81.2751 3.47308 81.1108 3.50404 80.958 3.56752C80.8053 3.63101 80.6676 3.72562 80.5536 3.84529C80.4368 3.96295 80.3448 4.10281 80.2831 4.25659C80.2214 4.41037 80.1913 4.57494 80.1946 4.74054C80.1927 4.90284 80.2234 5.06388 80.2851 5.21407C80.3468 5.36427 80.4381 5.50058 80.5536 5.6149C80.6674 5.73496 80.805 5.82996 80.9578 5.89377C81.1105 5.95758 81.2749 5.98879 81.4405 5.98541Z" fill="#575755"/>
<path d="M51.6961 5.9963C51.8626 5.99695 52.0276 5.9647 52.1816 5.90142C52.3356 5.83813 52.4756 5.74505 52.5933 5.62756C52.7111 5.51006 52.8044 5.37047 52.8678 5.21683C52.9313 5.06319 52.9636 4.89855 52.9629 4.73239C52.9644 4.5692 52.9324 4.40744 52.8688 4.25707C52.8053 4.1067 52.7115 3.9709 52.5934 3.85803C52.4769 3.73878 52.3373 3.64456 52.183 3.58116C52.0286 3.51776 51.8629 3.48652 51.6961 3.48936H49.4789C49.4229 3.48228 49.3666 3.47859 49.3101 3.4783C49.1447 3.47476 48.9804 3.50572 48.8277 3.5692C48.675 3.63269 48.5372 3.7273 48.4233 3.84697C48.2543 4.01677 48.1391 4.23236 48.092 4.46695C48.0736 4.55424 48.0643 4.64319 48.0642 4.73239C48.0642 4.73239 48.0642 4.73546 48.0642 4.7373C48.0642 4.73914 48.0642 4.74037 48.0642 4.74222V16.9623C48.0609 17.1279 48.0909 17.2925 48.1526 17.4463C48.2143 17.6001 48.3063 17.74 48.4233 17.8576C48.5372 17.9773 48.6749 18.0719 48.8276 18.1354C48.9804 18.1989 49.1447 18.2299 49.3101 18.2262C49.4767 18.2269 49.6417 18.1946 49.7957 18.1313C49.9497 18.0681 50.0897 17.975 50.2074 17.8575C50.3252 17.74 50.4185 17.6004 50.4819 17.4468C50.5453 17.2931 50.5777 17.1285 50.577 16.9623V5.9963H51.6961Z" fill="#575755"/>
<path d="M72.3251 3.53519C72.1994 3.49671 72.0686 3.47744 71.9371 3.47804C71.8807 3.47831 71.8243 3.482 71.7683 3.4891H69.5727C69.4106 3.48704 69.2499 3.51876 69.1008 3.58225C68.9517 3.64573 68.8175 3.73957 68.7068 3.85777C68.5913 3.97211 68.5001 4.10842 68.4384 4.25861C68.3767 4.4088 68.3459 4.56983 68.3478 4.73213C68.3445 4.89774 68.3745 5.06233 68.4362 5.21612C68.4979 5.3699 68.5899 5.50976 68.7068 5.62737C68.8174 5.74566 68.9516 5.83956 69.1007 5.90305C69.2498 5.96654 69.4106 5.99822 69.5727 5.99604H70.6912V7.85167H70.6709V14.5043C70.6709 14.8291 70.5415 15.1405 70.3113 15.3702C70.0811 15.5998 69.769 15.7289 69.4434 15.7289H64.6555C64.3848 15.7287 64.1218 15.6393 63.9074 15.4745C63.6929 15.3097 63.5391 15.0787 63.47 14.8176V5.99665H64.5835C64.7501 5.9973 64.9151 5.96506 65.0691 5.90177C65.2231 5.83848 65.363 5.74541 65.4808 5.62791C65.5985 5.51042 65.6918 5.37083 65.7552 5.21719C65.8187 5.06355 65.851 4.8989 65.8503 4.73274C65.8518 4.56956 65.8198 4.40781 65.7562 4.25745C65.6927 4.10708 65.5989 3.97127 65.4808 3.85838C65.3644 3.73913 65.2247 3.64492 65.0703 3.58152C64.916 3.51812 64.7504 3.48687 64.5835 3.48972H62.3719C62.3159 3.48263 62.2595 3.47894 62.2031 3.47865C62.0377 3.47511 61.8734 3.50607 61.7207 3.56956C61.568 3.63304 61.4302 3.72765 61.3162 3.84732C61.2075 3.95776 61.1202 4.08734 61.0588 4.22951C60.9885 4.38795 60.9529 4.55949 60.9541 4.73274C60.9541 4.7567 60.9541 4.77944 60.9541 4.80279V15.3239C60.9539 15.7055 61.029 16.0834 61.1753 16.436C61.3215 16.7885 61.536 17.1089 61.8065 17.3787C62.0769 17.6485 62.398 17.8625 62.7514 18.0084C63.1048 18.1543 63.4835 18.2293 63.866 18.229H69.1447C69.7716 18.2301 70.382 18.0281 70.884 17.6533C70.9314 17.7268 70.986 17.7953 71.0472 17.8579C71.1183 17.9311 71.1981 17.9953 71.2849 18.049C71.4799 18.1686 71.7051 18.2302 71.934 18.2266C72.1006 18.2272 72.2656 18.195 72.4196 18.1317C72.5736 18.0684 72.7135 17.9753 72.8313 17.8578C72.9491 17.7403 73.0423 17.6008 73.1058 17.4471C73.1692 17.2935 73.2015 17.1288 73.2009 16.9627V5.05594C73.2275 4.95026 73.241 4.84171 73.2409 4.73274C73.2424 4.56955 73.2104 4.4078 73.1468 4.25742C73.0833 4.10705 72.9895 3.97125 72.8714 3.85838C72.721 3.70459 72.5325 3.5931 72.3251 3.53519Z" fill="#575755"/>
<path d="M42.8772 3.48958C42.8273 3.48466 42.7768 3.48097 42.7263 3.47852H35.0962C34.9818 3.48259 34.8684 3.50223 34.7593 3.53689C34.585 3.59001 34.4256 3.68301 34.2937 3.80847C34.2777 3.82322 34.2611 3.83797 34.2457 3.85394L34.2272 3.87483C34.2075 3.89634 34.1878 3.91784 34.1693 3.93996C33.9832 4.16058 33.8829 4.44061 33.8866 4.72891V4.73321C33.8866 4.74243 33.8866 4.75165 33.8866 4.76087C33.8873 5.08441 34.0159 5.39461 34.2445 5.62416C34.355 5.74245 34.4892 5.83635 34.6383 5.89984C34.7875 5.96333 34.9483 5.995 35.1104 5.99283H37.5123C37.5629 5.99272 37.6135 5.98984 37.6638 5.98423H41.7132C41.7617 5.98985 41.8104 5.99272 41.8592 5.99283H41.9048C42.2037 6.02748 42.4794 6.17048 42.6796 6.39466C42.8798 6.61884 42.9904 6.90858 42.9905 7.20882V8.38794C42.9912 8.68438 42.884 8.97097 42.6888 9.19449C42.4936 9.41802 42.2238 9.56328 41.9294 9.60331H41.8598C41.8027 9.60364 41.7457 9.60774 41.6892 9.6156H33.8835V16.9631C33.8802 17.1288 33.9103 17.2933 33.972 17.4471C34.0337 17.6009 34.1257 17.7408 34.2426 17.8584C34.3532 17.9767 34.4874 18.0706 34.6365 18.1341C34.7856 18.1976 34.9464 18.2292 35.1085 18.2271H37.5105C37.677 18.2277 37.842 18.1955 37.996 18.1322C38.15 18.0689 38.29 17.9758 38.4077 17.8583C38.5255 17.7408 38.6188 17.6012 38.6822 17.4476C38.7456 17.294 38.778 17.1293 38.7773 16.9631C38.7788 16.8 38.7468 16.6382 38.6832 16.4878C38.6197 16.3375 38.5259 16.2017 38.4078 16.0888C38.2913 15.9695 38.1516 15.8753 37.9973 15.8119C37.843 15.7485 37.6773 15.7173 37.5105 15.7201H36.3939V12.117L41.8573 12.1121C41.7664 12.1121 41.6757 12.1022 41.587 12.0826H42.5822C42.9647 12.0828 43.3434 12.0079 43.6968 11.862C44.0502 11.716 44.3713 11.5021 44.6418 11.2323C44.9122 10.9624 45.1267 10.6421 45.2729 10.2895C45.4192 9.93695 45.4943 9.55907 45.4941 9.1775V6.37993C45.494 5.66016 45.2259 4.96609 44.7417 4.43245C44.2576 3.8988 43.592 3.56364 42.8741 3.49203L42.8772 3.48958Z" fill="#575755"/>
<path d="M163.884 2.73032C162.669 2.76227 159.747 3.11926 159.747 3.11926C159.747 3.11926 161.177 5.49041 158.112 10.7814C157.296 12.3324 156.227 13.7373 154.949 14.9387L154.835 15.0297C154.835 15.0297 159.671 12.2032 161.377 11.4044C165.391 9.53223 167.202 10.1571 167.202 10.1571C167.797 9.05842 168.327 7.92636 168.791 6.76661C169.111 5.99855 170 3.07502 170 3.07502C167.981 2.72533 165.929 2.60967 163.884 2.73032Z" fill="#F0A93E"/>
<g style="mix-blend-mode:multiply">
<path d="M159.747 3.11963C159.747 3.11963 161.176 5.49139 158.112 10.7818C157.296 12.3328 156.227 13.7377 154.949 14.9391L154.835 15.03C154.835 15.03 159.671 12.2036 161.377 11.4048C165.391 9.5326 167.202 10.1575 167.202 10.1575C167.222 6.36943 159.748 3.12024 159.747 3.11963Z" fill="#F0A93E"/>
</g>
<path d="M164.117 8.39762C163.286 9.11038 156.597 13.7925 154.976 14.939C155.211 14.939 158.179 12.9691 159.78 12.3331C162.544 11.2339 163.242 11.7267 163.242 11.7267C163.242 11.7267 164.839 9.63757 165.716 8.35952C166.672 6.96965 169.999 3.07959 169.999 3.07959C169.999 3.07959 168.78 4.39451 164.117 8.39762Z" fill="#EB972D"/>
</g>
<defs>
<clipPath id="clip0_7422_7456">
<rect width="170" height="29" fill="white"/>
</clipPath>
</defs>
</svg>
