<svg width="87" height="30" viewBox="0 0 87 30" fill="none" xmlns="http://www.w3.org/2000/svg">
<g clip-path="url(#clip0_7422_7424)">
<path d="M80.0719 9.75e-05H6.93205C6.66545 9.75e-05 6.40204 9.75e-05 6.13614 0.0015975C5.91356 0.0030975 5.69275 0.007455 5.46803 0.0111225C4.97984 0.0170489 4.49279 0.0613547 4.01113 0.143655C3.53014 0.227747 3.06422 0.386284 2.62912 0.613905C2.19456 0.843451 1.79748 1.14172 1.4523 1.4979C1.10531 1.85308 0.81607 2.26361 0.595696 2.71372C0.374714 3.16293 0.221484 3.6443 0.141299 4.14121C0.0603519 4.63749 0.0167933 5.13949 0.0110146 5.64271C0.0042677 5.87266 0.0035552 6.10337 0 6.33335V23.669C0.0035552 23.9019 0.0042677 24.1275 0.0110146 24.3605C0.0167951 24.8637 0.0603537 25.3656 0.141299 25.8619C0.221263 26.3591 0.374502 26.8407 0.595696 27.2901C0.81597 27.7388 1.10525 28.1476 1.4523 28.5008C1.79617 28.8586 2.1935 29.1571 2.62912 29.3849C3.06421 29.6131 3.53008 29.7726 4.01113 29.858C4.49287 29.9396 4.97987 29.9839 5.46803 29.9906C5.69275 29.9957 5.91356 29.9986 6.13614 29.9986C6.40203 30.0001 6.66546 30.0001 6.93205 30.0001H80.0719C80.3332 30.0001 80.5987 30.0001 80.86 29.9986C81.0815 29.9986 81.3087 29.9957 81.5302 29.9906C82.0175 29.9843 82.5035 29.94 82.9843 29.858C83.4669 29.772 83.9344 29.6125 84.3716 29.3849C84.8068 29.1569 85.2038 28.8585 85.5474 28.5008C85.8935 28.1463 86.1834 27.7377 86.4065 27.2901C86.626 26.8404 86.7778 26.3588 86.8566 25.8619C86.9376 25.3656 86.9827 24.8637 86.9915 24.3605C86.9943 24.1275 86.9943 23.9019 86.9943 23.669C87 23.3966 87 23.1256 87 22.8487V7.15219C87 6.87754 87 6.60508 86.9943 6.33335C86.9943 6.10337 86.9943 5.87266 86.9915 5.64268C86.9827 5.13941 86.9376 4.63752 86.8566 4.14118C86.7775 3.64456 86.6258 3.16322 86.4065 2.71369C85.9577 1.81149 85.246 1.07712 84.3716 0.613837C83.9344 0.386773 83.4668 0.228278 82.9843 0.143587C82.5036 0.0609246 82.0175 0.0166033 81.5302 0.0110175C81.3087 0.0073575 81.0815 0.0029625 80.86 0.0015C80.5987 0 80.3332 0 80.0719 0V9.75e-05Z" fill="#A6A6A6"/>
<path d="M6.13975 29.3438C5.91823 29.3438 5.70207 29.3408 5.4823 29.3357C5.02701 29.3296 4.57279 29.2887 4.12336 29.2134C3.70429 29.1389 3.29833 29.0005 2.91886 28.8025C2.54286 28.6061 2.19993 28.3487 1.90319 28.04C1.60215 27.735 1.35153 27.3812 1.16124 26.9927C0.96886 26.6016 0.83572 26.1824 0.766461 25.7498C0.691667 25.2848 0.6512 24.8147 0.645409 24.3435C0.6408 24.1853 0.634766 23.6587 0.634766 23.6587V6.33326C0.634766 6.33326 0.641193 5.8147 0.645446 5.66235C0.65099 5.19186 0.691222 4.72249 0.765792 4.2583C0.835179 3.82444 0.968422 3.40406 1.16091 3.01172C1.35049 2.62346 1.59973 2.2694 1.89895 1.96326C2.19784 1.65422 2.54187 1.39545 2.9185 1.19641C3.2971 0.99907 3.7023 0.861549 4.12052 0.788453C4.57143 0.712377 5.02722 0.671247 5.48408 0.665408L6.1401 0.65625H80.8565L81.5203 0.665775C81.973 0.671324 82.4247 0.712087 82.8714 0.787718C83.2939 0.861731 83.7033 1.00021 84.0863 1.19861C84.8408 1.59974 85.4547 2.23437 85.842 3.01355C86.0315 3.40318 86.1626 3.82013 86.2312 4.25024C86.3066 4.71824 86.3488 5.1913 86.3575 5.66565C86.3596 5.87805 86.3596 6.1062 86.3596 6.33326C86.3654 6.61451 86.3654 6.8822 86.3654 7.1521V22.8486C86.3654 23.1211 86.3654 23.387 86.3596 23.655C86.3596 23.8989 86.3596 24.1223 86.3568 24.3523C86.3483 24.8182 86.3068 25.2828 86.2325 25.7424C86.1647 26.1782 86.0323 26.6006 85.8399 26.9949C85.6483 27.3792 85.3991 27.73 85.1016 28.0342C84.8046 28.3445 84.461 28.6035 84.0841 28.8011C83.7023 29.0005 83.2935 29.1396 82.8714 29.2134C82.4221 29.2891 81.9678 29.33 81.5125 29.3357C81.2995 29.3408 81.0765 29.3438 80.86 29.3438L80.0719 29.3453L6.13975 29.3438Z" fill="black"/>
<path d="M18.0082 15.2257C18.016 14.5997 18.1772 13.986 18.4767 13.4415C18.7763 12.897 19.2045 12.4396 19.7215 12.1117C19.393 11.6278 18.9598 11.2296 18.4561 10.9487C17.9523 10.6678 17.3921 10.5119 16.8198 10.4934C15.5989 10.3612 14.4153 11.2471 13.7932 11.2471C13.159 11.2471 12.2011 10.5066 11.1697 10.5284C10.5025 10.5507 9.85227 10.7508 9.28237 11.1094C8.71246 11.4679 8.2423 11.9726 7.9177 12.5744C6.51162 15.0857 7.56043 18.7765 8.90734 20.8064C9.58123 21.8004 10.3688 22.9108 11.3994 22.8714C12.4078 22.8282 12.7844 22.208 14.0017 22.208C15.2077 22.208 15.561 22.8714 16.6125 22.8464C17.6946 22.8282 18.3764 21.8479 19.0266 20.8445C19.5108 20.1362 19.8834 19.3534 20.1306 18.5251C19.5019 18.2508 18.9654 17.7917 18.588 17.205C18.2106 16.6182 18.0089 15.9299 18.0082 15.2257Z" fill="white"/>
<path d="M16.0225 9.15849C16.6125 8.42784 16.9032 7.4887 16.8328 6.54053C15.9314 6.63819 15.0987 7.08261 14.5007 7.78523C14.2084 8.12848 13.9844 8.52781 13.8418 8.96039C13.6991 9.39297 13.6405 9.85031 13.6692 10.3063C14.1201 10.3111 14.5661 10.2103 14.9737 10.0114C15.3814 9.81263 15.7399 9.52099 16.0225 9.15849Z" fill="white"/>
<path d="M30.7557 20.3552H27.3143L26.4879 22.8726H25.0303L28.2899 13.5591H29.8043L33.0639 22.8726H31.5814L30.7557 20.3552ZM27.6707 19.1936H30.3986L29.0538 15.1082H29.0162L27.6707 19.1936Z" fill="white"/>
<path d="M40.1037 19.4781C40.1037 21.5882 39.0089 22.9439 37.3568 22.9439C36.9382 22.9665 36.522 22.867 36.1557 22.6569C35.7895 22.4468 35.4879 22.1345 35.2857 21.7559H35.2544V25.1192H33.9033V16.0826H35.2112V17.2119H35.236C35.4475 16.8351 35.7541 16.5245 36.1232 16.3131C36.4923 16.1017 36.91 15.9975 37.3319 16.0115C39.0025 16.0115 40.1037 17.3738 40.1037 19.4781ZM38.715 19.4781C38.715 18.1033 38.0263 17.1995 36.9755 17.1995C35.9432 17.1995 35.2488 18.1224 35.2488 19.4781C35.2488 20.8462 35.9432 21.7625 36.9755 21.7625C38.0263 21.7625 38.715 20.8653 38.715 19.4781Z" fill="white"/>
<path d="M47.3479 19.4781C47.3479 21.5882 46.2531 22.9439 44.6009 22.9439C44.1824 22.9665 43.7662 22.867 43.3999 22.6569C43.0336 22.4468 42.7321 22.1345 42.5298 21.7559H42.4986V25.1192H41.1475V16.0825H42.4553V17.2119H42.4801C42.6917 16.8351 42.9983 16.5245 43.3673 16.3131C43.7364 16.1017 44.1541 15.9975 44.576 16.0115C46.2467 16.0115 47.3479 17.3738 47.3479 19.4781ZM45.9591 19.4781C45.9591 18.1033 45.2704 17.1995 44.2196 17.1995C43.1873 17.1995 42.4929 18.1223 42.4929 19.4781C42.4929 20.8462 43.1873 21.7625 44.2196 21.7625C45.2704 21.7625 45.9591 20.8653 45.9591 19.4781H45.9591Z" fill="white"/>
<path d="M52.136 20.2776C52.2361 21.2012 53.1059 21.8076 54.2944 21.8076C55.4333 21.8076 56.2526 21.2012 56.2526 20.3684C56.2526 19.6455 55.7584 19.2127 54.5884 18.916L53.4183 18.6252C51.7604 18.2122 50.9908 17.4124 50.9908 16.1145C50.9908 14.5076 52.3483 13.4038 54.276 13.4038C56.1837 13.4038 57.4915 14.5076 57.5356 16.1145H56.1716C56.09 15.1851 55.3452 14.624 54.2568 14.624C53.1683 14.624 52.4236 15.1917 52.4236 16.0178C52.4236 16.6763 52.8993 17.0637 54.0629 17.3603L55.0576 17.6123C56.91 18.0642 57.6797 18.8318 57.6797 20.1941C57.6797 21.9365 56.3342 23.0278 54.1943 23.0278C52.1921 23.0278 50.8403 21.9621 50.7529 20.2776L52.136 20.2776Z" fill="white"/>
<path d="M60.5961 14.4756V16.0825H61.8478V17.1863H60.5961V20.9297C60.5961 21.5112 60.8467 21.7822 61.3969 21.7822C61.5455 21.7796 61.6939 21.7688 61.8414 21.75V22.8471C61.594 22.8948 61.3426 22.9164 61.0909 22.9116C59.7583 22.9116 59.2386 22.3952 59.2386 21.0783V17.1863H58.2815V16.0825H59.2385V14.4756H60.5961Z" fill="white"/>
<path d="M62.5723 19.478C62.5723 17.3416 63.792 15.999 65.6941 15.999C67.6026 15.999 68.8167 17.3415 68.8167 19.478C68.8167 21.6204 67.609 22.957 65.6941 22.957C63.7799 22.957 62.5723 21.6204 62.5723 19.478ZM67.44 19.478C67.44 18.0125 66.7889 17.1475 65.6941 17.1475C64.5993 17.1475 63.9489 18.019 63.9489 19.478C63.9489 20.9495 64.5993 21.8079 65.6941 21.8079C66.7889 21.8079 67.44 20.9495 67.44 19.478H67.44Z" fill="white"/>
<path d="M69.9307 16.0825H71.2193V17.2382H71.2506C71.3378 16.8773 71.5428 16.5583 71.8311 16.3349C72.1194 16.1114 72.4735 15.9972 72.8339 16.0114C72.9896 16.0109 73.1449 16.0283 73.2968 16.0634V17.3672C73.1002 17.3052 72.8952 17.2767 72.6897 17.2829C72.4934 17.2747 72.2977 17.3104 72.1161 17.3876C71.9345 17.4647 71.7711 17.5815 71.6374 17.73C71.5036 17.8784 71.4026 18.0549 71.3412 18.2474C71.2798 18.4399 71.2596 18.6438 71.2818 18.8452V22.8728H69.9307L69.9307 16.0825Z" fill="white"/>
<path d="M79.5268 20.8784C79.345 22.1111 78.1814 22.957 76.6925 22.957C74.7776 22.957 73.5891 21.6335 73.5891 19.5103C73.5891 17.3804 74.784 15.999 76.6357 15.999C78.4568 15.999 79.6021 17.2895 79.6021 19.3484V19.8259H74.953V19.9102C74.9316 20.1601 74.9619 20.4118 75.042 20.6487C75.1221 20.8856 75.2501 21.1022 75.4176 21.2841C75.5851 21.466 75.7882 21.609 76.0134 21.7038C76.2386 21.7985 76.4807 21.8427 76.7237 21.8335C77.043 21.8644 77.3634 21.7881 77.6373 21.616C77.9112 21.4439 78.1239 21.1852 78.2439 20.8784L79.5268 20.8784ZM74.9594 18.8518H78.2502C78.2624 18.6271 78.2293 18.4023 78.1532 18.1913C78.0771 17.9804 77.9596 17.788 77.808 17.6262C77.6564 17.4644 77.474 17.3366 77.2723 17.251C77.0705 17.1653 76.8538 17.1236 76.6357 17.1284C76.4157 17.1271 76.1976 17.1707 75.994 17.2567C75.7904 17.3428 75.6053 17.4696 75.4495 17.6298C75.2936 17.79 75.1701 17.9805 75.086 18.1903C75.0018 18.4 74.9588 18.6248 74.9594 18.8518V18.8518Z" fill="white"/>
<path d="M27.0346 11.0234V7.18075H25.6699V6.54834H29.0701V7.18079H27.7084V11.0234L27.0346 11.0234Z" fill="white"/>
<path d="M29.2781 10.0684C29.2781 9.46052 29.7169 9.11005 30.4957 9.06025L31.3825 9.00752V8.71601C31.3825 8.35932 31.1539 8.15791 30.7123 8.15791C30.3516 8.15791 30.1017 8.2945 30.03 8.53327H29.4045C29.4705 7.95319 29.9994 7.58113 30.7421 7.58113C31.5628 7.58113 32.0258 8.00263 32.0258 8.71601V11.0235H31.4038V10.5489H31.3526C31.2489 10.7191 31.1032 10.8579 30.9304 10.9511C30.7577 11.0442 30.564 11.0884 30.3693 11.0792C30.2319 11.0939 30.093 11.0788 29.9616 11.0347C29.8301 10.9907 29.7091 10.9188 29.6063 10.8235C29.5035 10.7283 29.4212 10.6119 29.3646 10.4819C29.3081 10.3518 29.2786 10.211 29.2781 10.0684ZM31.3825 9.77985V9.4975L30.583 9.55024C30.1322 9.58136 29.9277 9.73957 29.9277 10.0373C29.9277 10.3412 30.1833 10.5181 30.5348 10.5181C30.6378 10.5289 30.7418 10.5182 30.8407 10.4866C30.9396 10.455 31.0313 10.4033 31.1104 10.3344C31.1895 10.2655 31.2543 10.1809 31.3011 10.0856C31.3478 9.99038 31.3755 9.88638 31.3825 9.77985ZM30.2763 6.01154C30.4136 5.96304 30.5579 5.93901 30.703 5.94049C31.1333 5.94049 31.4123 6.17599 31.4123 6.54841C31.4 6.71459 31.3383 6.8728 31.2356 7.00151C31.133 7.13021 30.9943 7.22315 30.8386 7.26766L30.5916 6.93916C30.7875 6.87397 30.9253 6.74067 30.9253 6.607C30.9253 6.47077 30.7961 6.3715 30.6129 6.3715C30.4975 6.36823 30.3827 6.39046 30.2763 6.43669L30.2763 6.01154Z" fill="white"/>
<path d="M32.9531 6.64789C32.9482 6.56156 32.9684 6.47568 33.0113 6.40137C33.0542 6.32706 33.1177 6.26774 33.1936 6.2311C33.2696 6.19446 33.3544 6.18219 33.4372 6.19587C33.5199 6.20955 33.5968 6.24855 33.6579 6.30783C33.7189 6.3671 33.7613 6.44392 33.7795 6.52833C33.7977 6.61274 33.791 6.70085 33.7601 6.78125C33.7292 6.86165 33.6757 6.93063 33.6064 6.97926C33.537 7.0279 33.4552 7.05394 33.3713 7.05401C33.3177 7.05683 33.2642 7.04844 33.2138 7.02935C33.1634 7.01026 33.1173 6.98087 33.0783 6.94293C33.0392 6.90499 33.008 6.8593 32.9865 6.8086C32.965 6.75789 32.9536 6.70323 32.9531 6.64789ZM33.049 7.64654H33.693V11.0237H33.049V7.64654Z" fill="white"/>
<path d="M38.1041 11.0237H37.4097L36.2283 7.64648H36.9191L37.7342 10.3103H37.7853L38.5968 7.64648H39.2827L38.1041 11.0237Z" fill="white"/>
<path d="M42.6724 10.1117C42.5846 10.4204 42.3944 10.6873 42.1351 10.866C41.8757 11.0446 41.5638 11.1234 41.2538 11.0887C41.0381 11.0946 40.8238 11.052 40.6256 10.9639C40.4275 10.8757 40.2504 10.7441 40.1065 10.5783C39.9626 10.4124 39.8554 10.2163 39.7924 10.0034C39.7294 9.79053 39.712 9.56606 39.7415 9.34558C39.7128 9.12441 39.7305 8.89946 39.7933 8.68596C39.8562 8.47246 39.9628 8.27538 40.106 8.10808C40.2491 7.94077 40.4254 7.80714 40.6229 7.71624C40.8205 7.62533 41.0347 7.57927 41.251 7.58117C42.1619 7.58117 42.7114 8.22317 42.7114 9.28367V9.51625H40.3997V9.5536C40.3895 9.67753 40.4046 9.80228 40.444 9.91984C40.4833 10.0374 40.5461 10.1452 40.6282 10.2363C40.7103 10.3274 40.8099 10.3998 40.9207 10.4488C41.0315 10.4979 41.151 10.5225 41.2715 10.5211C41.4261 10.5402 41.5827 10.5115 41.7214 10.4386C41.86 10.3657 41.9746 10.2519 42.0504 10.1117L42.6724 10.1117ZM42.4445 7.18421H41.7707L41.2744 6.55139H41.2268L40.7305 7.18421H40.0574L40.8988 6.15775H41.6024L42.4445 7.18421ZM40.3997 9.02332H42.0532C42.0614 8.90997 42.0465 8.79612 42.0094 8.68908C41.9724 8.58205 41.914 8.48419 41.8381 8.40179C41.7622 8.3194 41.6705 8.2543 41.5687 8.21066C41.467 8.16703 41.3575 8.14584 41.2474 8.14844C41.1357 8.14699 41.0248 8.16863 40.9212 8.21209C40.8177 8.25555 40.7237 8.31994 40.6447 8.40148C40.5657 8.48301 40.5033 8.58004 40.4612 8.68684C40.4191 8.79364 40.3982 8.90804 40.3997 9.02332ZM42.0504 6.07385L41.3801 5.1001H42.0532L42.6276 6.07385H42.0504Z" fill="white"/>
<path d="M46.229 6.80566V7.66186H46.9383V8.22327H46.229V9.95984C46.229 10.3136 46.3703 10.4685 46.6919 10.4685C46.7743 10.4682 46.8565 10.4631 46.9383 10.4531V11.0083C46.8223 11.0297 46.7047 11.0411 46.5869 11.0424C45.8684 11.0424 45.5822 10.7816 45.5822 10.1305V8.22324H45.0625V7.66183H45.5822V6.80566H46.229Z" fill="white"/>
<path d="M47.792 7.64648H48.4139V8.16431H48.4622C48.5319 7.98455 48.6549 7.83218 48.8137 7.72908C48.9725 7.62597 49.1589 7.57744 49.3462 7.59045C49.4429 7.58911 49.5396 7.59844 49.6344 7.61828V8.27603C49.5159 8.2499 49.395 8.2364 49.2738 8.23575C49.1672 8.22588 49.0598 8.23911 48.9585 8.2746C48.8572 8.31009 48.7642 8.36705 48.6855 8.44182C48.6068 8.51659 48.5441 8.60752 48.5015 8.70877C48.4589 8.81001 48.4373 8.91933 48.4381 9.02969V11.0237H47.792L47.792 7.64648Z" fill="white"/>
<path d="M53.0317 10.1118C52.9439 10.4205 52.7538 10.6875 52.4944 10.8661C52.2351 11.0447 51.9232 11.1235 51.6132 11.0889C51.3975 11.0947 51.1831 11.0521 50.985 10.964C50.7869 10.8758 50.6098 10.7443 50.4659 10.5784C50.322 10.4126 50.2148 10.2164 50.1518 10.0035C50.0887 9.79065 50.0714 9.56618 50.1009 9.3457C50.0722 9.12453 50.0898 8.89958 50.1527 8.68608C50.2156 8.47257 50.3222 8.2755 50.4653 8.10819C50.6085 7.94089 50.7848 7.80726 50.9823 7.71635C51.1799 7.62545 51.394 7.57939 51.6103 7.58129C52.5212 7.58129 53.0708 8.22329 53.0708 9.28379V9.51637H50.759V9.55372C50.7489 9.67765 50.764 9.8024 50.8034 9.91996C50.8427 10.0375 50.9055 10.1453 50.9875 10.2364C51.0696 10.3275 51.1693 10.3999 51.2801 10.4489C51.3909 10.498 51.5104 10.5226 51.6309 10.5212C51.7855 10.5404 51.942 10.5116 52.0807 10.4387C52.2194 10.3658 52.334 10.252 52.4098 10.1118L53.0317 10.1118ZM52.8003 7.18432H52.1364L51.6337 6.505H51.5862L51.0842 7.18432H50.4168L51.2581 6.11133H51.9617L52.8003 7.18432ZM50.759 9.02344H52.4126C52.4208 8.91009 52.4058 8.79624 52.3688 8.6892C52.3317 8.58216 52.2734 8.4843 52.1975 8.40191C52.1216 8.31952 52.0298 8.25441 51.9281 8.21078C51.8264 8.16715 51.7169 8.14596 51.6068 8.14856C51.495 8.14711 51.3841 8.16875 51.2806 8.21221C51.1771 8.25567 51.0831 8.32006 51.0041 8.4016C50.9251 8.48313 50.8627 8.58016 50.8206 8.68696C50.7785 8.79375 50.7576 8.90816 50.759 9.02344Z" fill="white"/>
<path d="M53.9385 7.64664H54.5604V8.18314H54.6087C54.6906 7.99045 54.8288 7.82892 55.0039 7.72106C55.179 7.61321 55.3824 7.5644 55.5857 7.58145C55.745 7.56909 55.9049 7.59387 56.0536 7.65394C56.2024 7.71402 56.3361 7.80784 56.445 7.92848C56.5538 8.04911 56.6349 8.19345 56.6823 8.35082C56.7297 8.50819 56.7422 8.67454 56.7188 8.83755V11.0238H56.0727V9.00492C56.0727 8.4622 55.8441 8.19229 55.3663 8.19229C55.2581 8.1871 55.1502 8.20609 55.0498 8.24796C54.9494 8.28983 54.859 8.3536 54.7848 8.43489C54.7105 8.51618 54.6542 8.61306 54.6196 8.71891C54.5851 8.82476 54.5731 8.93707 54.5846 9.04813V11.0238H53.9385V7.64664Z" fill="white"/>
</g>
<defs>
<clipPath id="clip0_7422_7424">
<rect width="87" height="30" fill="white"/>
</clipPath>
</defs>
</svg>
