<svg width="16" height="18" viewBox="0 0 16 18" fill="none" xmlns="http://www.w3.org/2000/svg">
<path d="M12.9998 2.73318C11.6737 1.40709 9.87514 0.662109 7.99978 0.662109C6.12441 0.662109 4.32586 1.40709 2.99978 2.73318C1.6737 4.05926 0.928711 5.85781 0.928711 7.73318C0.928711 9.60854 1.6737 11.4071 2.99978 12.7332L7.39144 17.1332C7.46891 17.2113 7.56108 17.2733 7.66263 17.3156C7.76418 17.3579 7.8731 17.3797 7.98311 17.3797C8.09312 17.3797 8.20204 17.3579 8.30359 17.3156C8.40514 17.2733 8.49731 17.2113 8.57478 17.1332L12.9998 12.6915C14.3203 11.3709 15.0622 9.57989 15.0622 7.71234C15.0622 5.8448 14.3203 4.05374 12.9998 2.73318ZM11.8081 11.4998L7.99978 15.3248L4.19144 11.4998C3.43906 10.7468 2.92684 9.78755 2.71952 8.74342C2.51221 7.69929 2.6191 6.61713 3.0267 5.63374C3.43429 4.65036 4.12429 3.80988 5.00947 3.21857C5.89465 2.62726 6.93526 2.31166 7.99978 2.31166C9.06429 2.31166 10.1049 2.62726 10.9901 3.21857C11.8753 3.80988 12.5653 4.65036 12.9729 5.63374C13.3805 6.61713 13.4873 7.69929 13.28 8.74342C13.0727 9.78755 12.5605 10.7468 11.8081 11.4998ZM5.49978 5.17484C4.82704 5.84965 4.44927 6.76365 4.44927 7.71651C4.44927 8.66937 4.82704 9.58337 5.49978 10.2582C5.99958 10.7588 6.6361 11.1007 7.32949 11.241C8.02287 11.3813 8.74224 11.3137 9.39734 11.0466C10.0524 10.7796 10.6141 10.3251 11.0118 9.74005C11.4096 9.15503 11.6257 8.46557 11.6331 7.75818C11.6369 7.28585 11.5459 6.81756 11.3655 6.381C11.1852 5.94444 10.9191 5.54847 10.5831 5.21651C10.2528 4.87866 9.85901 4.60946 9.4243 4.4244C8.98958 4.23934 8.52256 4.14207 8.05011 4.1382C7.57766 4.13433 7.10911 4.22392 6.67142 4.40183C6.23373 4.57974 5.83555 4.84245 5.49978 5.17484ZM9.40811 9.07484C9.09231 9.39546 8.67495 9.59643 8.22738 9.64339C7.77981 9.69034 7.32983 9.58038 6.95437 9.33228C6.5789 9.08419 6.30128 8.71338 6.16895 8.28325C6.03662 7.85311 6.05782 7.39037 6.22891 6.97414C6.4 6.5579 6.71036 6.21402 7.10693 6.00129C7.5035 5.78856 7.96165 5.72018 8.40306 5.80786C8.84446 5.89553 9.2417 6.13381 9.52687 6.48195C9.81203 6.8301 9.96741 7.26648 9.96644 7.71651C9.95432 8.2309 9.73852 8.71945 9.36644 9.07484H9.40811Z" fill="#828282"/>
</svg>
