<svg width="44" height="44" viewBox="0 0 44 44" fill="none" xmlns="http://www.w3.org/2000/svg">
<g clip-path="url(#clip0_7300_5167)">
<path d="M24.0628 19.8489H2.83105V2.86353H24.0628V19.8489Z" fill="#F66A6A"/>
<path d="M33.9707 26.926H38.2171V30.4647H33.9707V26.926Z" fill="#F66A6A"/>
<path d="M24.0627 0.0317383H2.8309C1.26962 0.0317383 0 1.30136 0 2.86264V19.8481C0 20.6982 0.383582 21.4518 0.977961 21.9712C0.383582 22.4906 0 23.2443 0 24.0944V41.0798C0 42.6411 1.26962 43.9107 2.8309 43.9107H24.0627C25.6239 43.9107 26.8936 42.6411 26.8936 41.0798V24.0944C26.8936 23.2443 26.51 22.4906 25.9156 21.9712C26.51 21.4518 26.8936 20.6982 26.8936 19.8481V2.86264C26.8936 1.30136 25.6239 0.0317383 24.0627 0.0317383ZM25.4781 24.0944V39.6644H21.9395V41.0798H25.4781C25.4781 41.8605 24.8433 42.4953 24.0627 42.4953H2.8309C2.05026 42.4953 1.41545 41.8605 1.41545 41.0798H20.524V39.6644H1.41545V24.0944C1.41545 23.3138 2.05026 22.679 2.8309 22.679H24.0627C24.8433 22.679 25.4781 23.3138 25.4781 24.0944ZM2.8309 21.2635C2.05026 21.2635 1.41545 20.6287 1.41545 19.8481V2.86264C1.41545 2.082 2.05026 1.44719 2.8309 1.44719H24.0627C24.8433 1.44719 25.4781 2.082 25.4781 2.86264V19.8481C25.4781 20.6287 24.8433 21.2635 24.0627 21.2635H2.8309Z" fill="#3F3F3F"/>
<path d="M8.7002 7.61049L9.70096 6.60938L18.1937 15.1024L17.1929 16.1032L8.7002 7.61049Z" fill="#3F3F3F"/>
<path d="M12.9463 7.61014L13.9471 6.60938L18.1934 10.8554L17.1923 11.8562L12.9463 7.61014Z" fill="#3F3F3F"/>
<path d="M7.99219 11.1487L8.99296 10.1479L13.2393 14.394L12.2382 15.3947L7.99219 11.1487Z" fill="#3F3F3F"/>
<path d="M2.83105 36.8344C2.83105 37.615 3.46587 38.2498 4.24651 38.2498H22.6474C23.428 38.2498 24.0628 37.615 24.0628 36.8344V26.9262C24.0628 26.1456 23.428 25.5107 22.6474 25.5107H4.24651C3.46587 25.5107 2.83105 26.1456 2.83105 26.9262V36.8344ZM14.1547 26.9262H17.6933V31.1725H14.1547V26.9262ZM14.1547 32.588H17.6933V36.8344H14.1547V32.588ZM19.1088 36.8344V32.588H22.6481L22.6488 36.8344H19.1088ZM22.6481 31.1725H19.1088V26.9262H22.6474L22.6481 31.1725ZM4.24651 26.9262H12.7392V36.8344H4.24651V26.9262Z" fill="#3F3F3F"/>
<path d="M38.9248 30.2977V11.0236C38.9248 9.42328 39.1214 7.82467 39.5102 6.27238C39.5914 5.94616 39.6325 5.61061 39.6325 5.27472C39.6325 3.98644 39.0167 2.75518 37.9863 1.98283L36.0939 0.563232L34.2016 1.98283C33.1711 2.75587 32.5553 3.98644 32.5553 5.27472C32.5553 5.61061 32.5964 5.94616 32.6776 6.27238C33.0664 7.82537 33.263 9.42397 33.263 11.0236V30.297L28.188 40.4471L28.4506 40.7975C28.546 40.925 30.8461 43.9114 36.0939 43.9114C41.3417 43.9114 43.6418 40.924 43.7372 40.7975L43.9998 40.4478L38.9248 30.2977ZM35.0506 3.11457L36.0939 2.33255L37.1372 3.11457C37.8138 3.62221 38.2171 4.42946 38.2171 5.27472C38.2171 5.49554 38.1901 5.71567 38.1366 5.92992C37.7202 7.59383 37.5094 9.30717 37.5094 11.0236V29.7569H34.6785V11.0236C34.6785 9.30717 34.4677 7.59314 34.0513 5.92992C33.9977 5.71567 33.9707 5.49554 33.9707 5.27472C33.9707 4.42946 34.374 3.62221 35.0506 3.11457ZM34.4082 31.1724H34.4922L32.019 41.6849C30.9277 41.2001 30.2206 40.6133 29.8647 40.2587L34.4082 31.1724ZM33.3643 42.1476L35.9467 31.1724H36.2404L38.8222 42.1449C38.0415 42.3522 37.1448 42.496 36.0939 42.496C35.041 42.496 34.1456 42.3536 33.3643 42.1476ZM40.1682 41.6815L37.6956 31.1724H37.7796L42.3225 40.2574C41.9665 40.6098 41.2581 41.1959 40.1682 41.6815Z" fill="#3F3F3F"/>
<path d="M35.3862 4.27881H36.8017V5.69426H35.3862V4.27881Z" fill="#3F3F3F"/>
</g>
<defs>
<clipPath id="clip0_7300_5167">
<rect width="44" height="44" fill="white"/>
</clipPath>
</defs>
</svg>
