<svg width="44" height="44" viewBox="0 0 44 44" fill="none" xmlns="http://www.w3.org/2000/svg">
<path d="M41.2323 3.97999C38.9773 2.10105 35.7454 1.58611 33.0105 2.67855L32.9053 2.72117C30.5231 3.67474 27.835 3.71736 25.4184 2.84011L21.4509 1.39705C20.2203 0.948799 18.9216 0.721924 17.5919 0.721924H17.3279C11.3082 0.721924 6.41113 5.61899 6.41113 11.6387C6.41113 13.6167 6.94876 15.5589 7.96695 17.2556L10.202 20.9798L12.512 20.7488C13.2146 20.6787 13.7502 20.0874 13.7502 19.3807V14.4375L12.8613 13.5486C12.5498 13.2372 12.3752 12.815 12.3752 12.375C12.3752 11.6154 12.9905 11 13.7502 11L14.1627 7.70005C14.3194 6.4433 15.3885 5.50005 16.6549 5.50005C17.0062 5.50005 17.3541 5.57361 17.6751 5.71661L22.4835 7.85336C22.8211 8.00324 23.1744 8.11186 23.5361 8.17717C24.1046 9.68761 24.7502 11.8264 24.7502 13.75L23.3752 14.4375C23.3752 16.3357 21.8359 17.875 19.9377 17.875H19.2502V19.3807C19.2502 20.0874 19.7858 20.6787 20.4884 20.7488L24.1672 21.1166C25.4226 21.2424 26.5776 21.8557 27.3854 22.8244L27.6466 23.1379L31.2773 22.3314C31.7634 22.2228 32.2412 22.0805 32.6977 21.9079L32.8153 21.8151L32.1113 21.1111C31.7998 20.7997 31.6252 20.3776 31.6252 19.9375C31.6252 19.1779 32.2405 18.5625 33.0002 18.5625C33.0002 17.4234 33.9235 16.5 35.0627 16.5C36.1593 16.5 37.0475 17.358 37.1128 18.4388L37.5123 18.1246L37.6553 17.9685C38.8041 16.2546 39.4111 14.2567 39.4111 12.1901C39.4111 10.7862 40.0292 9.46624 41.1072 8.56767L43.9225 6.22192L41.2323 3.97999Z" fill="#F66A6A"/>
<path d="M20.625 12.375C21.7621 12.375 22.6875 11.4496 22.6875 10.3125H21.3125C21.3125 10.692 21.0038 11 20.625 11C20.2462 11 19.9375 10.692 19.9375 10.3125H18.5625C18.5625 11.4496 19.4879 12.375 20.625 12.375Z" fill="#3F3F3F"/>
<path d="M35.0625 15.8125C33.7487 15.8125 32.6473 16.7386 32.3764 17.9712C31.5432 18.2359 30.9375 19.0176 30.9375 19.9375C30.9375 20.5638 31.1816 21.1537 31.625 21.5971L32.3125 22.2846V27.6636L27.9132 22.3843C26.9844 21.2706 25.6788 20.5769 24.2351 20.4325L20.5562 20.0647C20.2036 20.0296 19.9375 19.7354 19.9375 19.3813V18.5625C22.0646 18.5625 23.8212 16.9441 24.0398 14.8741L24.9576 14.4155L26.4529 14.2017C28.6722 13.8847 30.6481 12.5256 31.7371 10.5648C32.7656 8.71269 34.7201 7.5625 36.8383 7.5625H37.125V6.1875H36.8383C34.221 6.1875 31.8051 7.60856 30.5346 9.89725C29.6526 11.484 28.0541 12.584 26.2577 12.8398L25.4045 12.9614C25.2959 11.5589 24.9212 10.1228 24.5259 8.92513C25.2814 8.90038 26.0336 8.72025 26.7163 8.37925L27.1198 8.17712L26.5038 6.94719L26.1009 7.14931C25.0656 7.66563 23.815 7.69381 22.7611 7.22425L17.9534 5.0875C17.5409 4.90463 17.1043 4.8125 16.6547 4.8125C15.0452 4.8125 13.6806 6.017 13.4805 7.61475L13.1313 10.4074C12.2952 10.6707 11.6875 11.4531 11.6875 12.375C11.6875 13.0013 11.9316 13.5912 12.375 14.0346L13.0625 14.7221V19.3806C13.0625 19.7354 12.7964 20.0289 12.4438 20.064L8.64531 20.4442C7.28269 20.5803 6.03831 21.2939 5.23256 22.4029L1.353 27.7372C0.917125 28.3346 0.6875 29.0421 0.6875 29.7818C0.6875 30.7113 1.04912 31.5844 1.70569 32.2403L9.2565 39.7911C9.35069 39.8853 9.45656 39.9637 9.56175 40.0421L8.74431 43.3125H25.6307L24.7094 39.6268C24.2935 37.9631 24.0763 36.2519 24.0639 34.5366L24.519 33.6263C25.0848 32.4947 25.3887 31.2352 25.4244 29.9702L29.9832 34.969C30.8337 35.9019 32.0464 36.4375 33.3094 36.4375C35.7926 36.4375 37.8125 34.4176 37.8125 31.9344V18.5625C37.8125 17.0459 36.5791 15.8125 35.0625 15.8125ZM23.2286 26.2343L23.5386 27.0084C23.8487 27.7846 24.0151 28.5993 24.0487 29.4305C23.2574 29.1411 22.6875 28.3869 22.6875 27.5C22.6875 26.9961 22.8766 26.5169 23.1983 26.147C23.2093 26.1759 23.2169 26.2054 23.2286 26.2343ZM22.7975 24.6751C21.8824 25.3103 21.3125 26.3684 21.3125 27.5C21.3125 29.1211 22.4496 30.4831 23.9669 30.8399C23.9106 31.2056 23.826 31.5659 23.716 31.9193C23.0876 31.3033 22.2379 30.9375 21.3125 30.9375C19.6529 30.9375 18.2641 32.1207 17.9444 33.6875H13.0591C13.4943 33.1079 13.75 32.3923 13.75 31.625C13.75 29.7296 12.2079 28.1875 10.3125 28.1875C10.2403 28.1875 10.1688 28.1951 10.0966 28.1999C9.96463 27.9345 9.82438 27.6732 9.67725 27.4154C10.0932 26.0679 10.3125 24.6744 10.3125 23.2636V21.6597L11.6875 21.5222V22C11.6875 23.4458 12.3317 24.7417 13.3444 25.6245C13.167 25.9937 13.0625 26.3966 13.0625 26.8125C13.0625 28.3291 14.2959 29.5625 15.8125 29.5625C17.3291 29.5625 18.5625 28.3291 18.5625 26.8125C18.5625 26.6599 18.5391 26.5121 18.5144 26.3649C20.1637 25.6004 21.3125 23.9333 21.3125 22V21.5222L22.6875 21.6597V23.4259C22.6875 23.8473 22.7288 24.2639 22.7975 24.6751ZM19.3765 33.6875C19.6611 32.8893 20.4174 32.3125 21.3125 32.3125C22.0715 32.3125 22.7494 32.7188 23.1103 33.3664L22.9501 33.6875H19.3765ZM11.5864 33.2406C11.4448 31.9962 11.1499 30.7732 10.7099 29.6024C11.6573 29.7887 12.375 30.624 12.375 31.625C12.375 32.274 12.0704 32.8591 11.5864 33.2406ZM8.77938 28.6303C9.52944 30.0871 10.0114 31.6724 10.208 33.2977L7.15962 30.25L8.77938 28.6303ZM17.182 26.7582C17.1827 26.7768 17.1875 26.7939 17.1875 26.8125C17.1875 27.5708 16.5708 28.1875 15.8125 28.1875C15.0542 28.1875 14.4375 27.5708 14.4375 26.8125C14.4375 26.6633 14.465 26.5169 14.5118 26.3773C15.1188 26.6544 15.7905 26.8125 16.5 26.8125C16.7317 26.8125 16.9586 26.7905 17.182 26.7582ZM14.4375 19.3806V14.1529L13.3478 13.0625C13.1636 12.8783 13.0625 12.6349 13.0625 12.375C13.0625 11.9955 13.3712 11.6875 13.75 11.6875H14.3571L14.8445 7.78525C14.9586 6.87431 15.7369 6.1875 16.6547 6.1875C16.9111 6.1875 17.1607 6.24044 17.3958 6.34494L22.2035 8.48169C22.4654 8.59787 22.7384 8.68381 23.0148 8.75463C23.4781 10.0396 23.9745 11.7446 24.0522 13.3299L22.6875 14.0126V14.4375C22.6875 14.6761 22.6476 14.9036 22.5899 15.125H21.4748C20.7886 15.125 20.1719 14.7434 19.8653 14.1302L18.6354 14.7455C19.1771 15.8276 20.2647 16.5007 21.4748 16.5007H21.7374C21.2541 16.9235 20.6291 17.1882 19.9375 17.1882H17.1875V18.5632H18.5625V19.3813C18.5625 20.2751 19.1297 21.0347 19.9375 21.3194V22C19.9375 23.8954 18.3954 25.4375 16.5 25.4375C14.6046 25.4375 13.0625 23.8954 13.0625 22V21.3187C13.8703 21.0341 14.4375 20.2751 14.4375 19.3806ZM2.6785 31.2682C2.28112 30.8715 2.0625 30.3442 2.0625 29.7818C2.0625 29.3349 2.20138 28.9073 2.464 28.545L6.34356 23.2107C6.91969 22.4194 7.80794 21.9093 8.78144 21.8123L8.9375 21.7972V23.2636C8.9375 24.5781 8.73469 25.8782 8.33525 27.1301L6.1875 29.2779L5.29856 28.3889L4.32644 29.3611L10.0279 35.0625H11C11.3788 35.0625 11.6875 35.3705 11.6875 35.75V36.729L12.0099 37.0411C12.2423 37.2652 12.375 37.5794 12.375 37.9369C12.375 38.6265 11.814 39.1875 11.1238 39.1875C10.7841 39.1875 10.4658 39.0569 10.2286 38.8197L2.6785 31.2682ZM10.5057 41.9375L10.8556 40.5364C10.945 40.5453 11.033 40.5625 11.1244 40.5625C12.5723 40.5625 13.75 39.3848 13.75 37.9019C13.75 37.2549 13.5011 36.6252 13.0625 36.1515V35.75C13.0625 35.508 13.013 35.2784 12.936 35.0625H22.7088C22.7583 36.7139 22.9749 38.3577 23.375 39.9596L23.8693 41.9375H10.5057ZM36.4375 31.9344C36.4375 33.6593 35.0343 35.0625 33.3094 35.0625C32.4321 35.0625 31.5893 34.6906 30.998 34.0422L25.1783 27.6602C25.0821 27.2669 24.9673 26.8778 24.8153 26.4983L24.5059 25.7242C24.2117 24.9899 24.0625 24.2172 24.0625 23.4259V21.7972L24.0982 21.8006C25.1804 21.9086 26.1607 22.429 26.8572 23.265L32.3125 29.8114V32.3125H33.6875V21.7154L32.5978 20.625C32.4136 20.4408 32.3125 20.1974 32.3125 19.9375C32.3125 19.558 32.6212 19.25 33 19.25H33.6875V18.5625C33.6875 17.8042 34.3042 17.1875 35.0625 17.1875C35.8208 17.1875 36.4375 17.8042 36.4375 18.5625V31.9344Z" fill="#3F3F3F"/>
<path d="M17.1875 39.1875C17.5672 39.1875 17.875 38.8797 17.875 38.5C17.875 38.1203 17.5672 37.8125 17.1875 37.8125C16.8078 37.8125 16.5 38.1203 16.5 38.5C16.5 38.8797 16.8078 39.1875 17.1875 39.1875Z" fill="#3F3F3F"/>
</svg>
