<svg width="20" height="20" viewBox="0 0 20 20" fill="none" xmlns="http://www.w3.org/2000/svg">
<path d="M3.5835 15.5001H7.47016C7.5908 15.5008 7.71039 15.4777 7.82208 15.4321C7.93376 15.3864 8.03534 15.3192 8.121 15.2343L14.4643 8.88177L17.0677 6.33344C17.1536 6.24822 17.2218 6.14684 17.2683 6.03513C17.3149 5.92343 17.3388 5.80362 17.3388 5.68261C17.3388 5.5616 17.3149 5.44178 17.2683 5.33008C17.2218 5.21837 17.1536 5.11699 17.0677 5.03177L13.181 1.09927C13.0958 1.01336 12.9944 0.945161 12.8827 0.898623C12.771 0.852085 12.6512 0.828125 12.5302 0.828125C12.4092 0.828125 12.2893 0.852085 12.1776 0.898623C12.0659 0.945161 11.9645 1.01336 11.8793 1.09927L9.29433 3.69344L2.93266 10.0459C2.8477 10.1316 2.78049 10.2332 2.73487 10.3449C2.68925 10.4565 2.66613 10.5761 2.66683 10.6968V14.5834C2.66683 14.8266 2.76341 15.0597 2.93532 15.2316C3.10722 15.4035 3.34038 15.5001 3.5835 15.5001ZM12.5302 3.04261L15.1243 5.63677L13.8227 6.93844L11.2285 4.34427L12.5302 3.04261ZM4.50016 11.0726L9.936 5.63677L12.5302 8.23094L7.09433 13.6668H4.50016V11.0726ZM18.2502 17.3334H1.75016C1.50705 17.3334 1.27389 17.43 1.10198 17.6019C0.930073 17.7738 0.833496 18.007 0.833496 18.2501C0.833496 18.4932 0.930073 18.7264 1.10198 18.8983C1.27389 19.0702 1.50705 19.1668 1.75016 19.1668H18.2502C18.4933 19.1668 18.7264 19.0702 18.8983 18.8983C19.0703 18.7264 19.1668 18.4932 19.1668 18.2501C19.1668 18.007 19.0703 17.7738 18.8983 17.6019C18.7264 17.43 18.4933 17.3334 18.2502 17.3334Z" fill="white"/>
</svg>
