<svg width="44" height="44" viewBox="0 0 44 44" fill="none" xmlns="http://www.w3.org/2000/svg">
    <path d="M12.375 11.6875H6.875V7.5625H12.375V11.6875Z" fill="#F66A6A" />
    <path d="M20.625 11.6875H15.125V7.5625H20.625V11.6875Z" fill="#F66A6A" />
    <path d="M28.875 11.6875H23.375V7.5625H28.875V11.6875Z" fill="#F66A6A" />
    <path d="M37.125 11.6875H31.625V7.5625H37.125V11.6875Z" fill="#F66A6A" />
    <path d="M43.3125 4.8125V0.6875H0.6875V4.8125H2.75V22.7851C1.56681 23.0924 0.6875 24.1594 0.6875 25.4375C0.6875 26.9541 1.92087 28.1875 3.4375 28.1875H5.5V36.9284L2.36913 41.9375H0.6875V43.3125H43.3125V41.9375H41.6309L38.5 36.9284V31.6078C38.9854 31.2407 39.3759 30.7567 39.6124 30.1868L39.9616 30.4858C40.3253 30.7773 40.7825 30.9375 41.2493 30.9375C41.877 30.9375 42.4641 30.6563 42.8615 30.1627C43.5696 29.2765 43.4253 27.9758 42.5569 27.2786L41.25 26.1587V4.8125H43.3125ZM2.0625 2.0625H41.9375V3.4375H2.0625V2.0625ZM2.0625 25.4375C2.0625 24.6792 2.67919 24.0625 3.4375 24.0625H6.1875V26.8125H3.4375C2.67919 26.8125 2.0625 26.1958 2.0625 25.4375ZM9.625 39.5223L11.1347 41.9375H9.625V39.5223ZM7.5625 26.9527V23.9223L15.8125 22.0179V28.8564L7.5625 26.9527ZM8.25 28.523V41.9375H6.875V28.2061L8.25 28.523ZM5.5 39.5223V41.9375H3.99025L5.5 39.5223ZM34.375 41.9375H32.8652L34.375 39.5223V41.9375ZM40.0098 41.9375H38.5V39.5223L40.0098 41.9375ZM37.125 41.9375H35.75V32.2431C35.9721 32.2884 36.2024 32.3125 36.4375 32.3125C36.6726 32.3125 36.9029 32.2884 37.125 32.2431V41.9375ZM36.4375 30.9375C35.3004 30.9375 34.375 30.0121 34.375 28.875C34.375 27.7379 35.3004 26.8125 36.4375 26.8125C37.5746 26.8125 38.5 27.7379 38.5 28.875C38.5 30.0121 37.5746 30.9375 36.4375 30.9375ZM41.789 29.3019C41.5539 29.5927 41.0829 29.6223 40.8382 29.4271L39.8447 28.5759C39.6901 26.8221 38.2305 25.4375 36.4375 25.4375C36.3598 25.4375 36.2869 25.4554 36.2106 25.4602L32.4012 22.1952L33.3754 21.2211L41.6783 28.3367C41.9753 28.5746 42.0234 29.0084 41.789 29.3019ZM33.3197 19.3332L29.5625 23.0904L27.7846 21.3125L31.5418 17.5553C31.7756 17.3216 32.0994 17.1875 32.4307 17.1875C33.1237 17.1875 33.6875 17.7512 33.6875 18.4443C33.6875 18.7756 33.5534 19.0994 33.3197 19.3332ZM39.875 24.9803L34.3447 20.2407C34.8047 19.7512 35.0625 19.1187 35.0625 18.4443C35.0625 16.9936 33.8814 15.8125 32.4307 15.8125C31.7281 15.8125 31.0667 16.0861 30.5697 16.5832L25.8404 21.3125L29.5625 25.0346L31.4263 23.1708L34.6637 25.9456C33.671 26.5492 33 27.6306 33 28.875C33 29.9936 33.5452 30.9794 34.375 31.6071V36.9277L31.2441 41.9375H12.7559L9.625 36.9284V28.8406L15.6578 30.2328L17.1875 30.25V20.625H15.8125L6.80075 22.6875H4.125V4.8125H8.9375V7.5625H10.3125V4.8125H17.1875V7.5625H18.5625V4.8125H25.4375V7.5625H26.8125V4.8125H33.6875V7.5625H35.0625V4.8125H39.875V24.9803Z" fill="#3F3F3F" />
</svg>